<svg width="876" height="239" viewBox="0 0 876 239" fill="none" xmlns="http://www.w3.org/2000/svg">
<path d="M836.777 227.305C851.771 210.963 867.236 193.8 873.344 172.48C879.452 151.16 873.005 124.48 853.129 114.642C843.814 110.031 833.056 109.68 822.678 109.096C792.595 107.402 761.538 102.584 736.418 85.9459C709.906 68.3859 689.36 37.7129 657.703 34.7039C629.806 32.0519 605.554 52.3549 579.027 61.3879C553.253 70.1649 523.92 67.8979 499.8 55.2659C470.912 40.1369 449.48 11.1509 417.986 2.69193C390.113 -4.79407 360.268 5.81691 336.179 21.7109C312.089 37.6059 291.799 58.6269 268.352 75.4549C237.839 97.3539 202.072 111.878 164.93 117.452C137.676 121.542 109.865 120.877 82.6452 125.19C55.4252 129.503 27.7012 139.703 10.0712 160.886C6.13123 165.62 2.70322 170.97 1.36122 176.981C-1.01778 187.644 3.59623 198.872 10.6942 207.177C30.7832 230.683 65.6362 233.085 96.5502 233.718C340.931 238.724 585.85 243.714 829.41 223.086" fill="url(#paint0_linear)"/>
<defs>
<linearGradient id="paint0_linear" x1="438.145" y1="6.04263" x2="438.145" y2="232.176" gradientUnits="userSpaceOnUse">
<stop offset="0.0058" stop-color="white" stop-opacity="0.5"/>
<stop offset="0.6199" stop-color="#FFC9A9" stop-opacity="0.2526"/>
<stop offset="0.9987" stop-color="#FFAA78" stop-opacity="0.1"/>
</linearGradient>
</defs>
</svg>
