<svg width="1444" height="521" viewBox="0 0 1444 521" fill="none" xmlns="http://www.w3.org/2000/svg">
<path d="M1437.43 302.487C1421.14 255.267 1377.44 223.012 1332.84 200.525C1266.2 166.928 1166.05 170.453 1003.88 55.8619C963.273 27.1709 914.882 0.318925 866.615 12.2429C837.867 19.3449 811.499 39.2199 781.996 36.6829C751.077 34.0239 726.962 7.37095 696.493 1.47895C666.63 -4.29605 636.542 11.021 613.122 30.429C589.702 49.837 570.011 73.7979 544.631 90.5609C495.572 122.963 433.097 124.036 374.373 126.889C315.649 129.742 251.998 137.685 210.121 178.952C186.024 202.698 172.214 234.754 152.195 262.026C132.9 288.313 107.636 310.192 78.8621 325.534C45.7601 343.184 1.82008 360.777 0.81808 398.276C0.12208 424.332 22.4871 444.984 44.9201 458.256C112.865 498.454 195.254 505.34 274.183 503.706C335.297 502.441 396.317 496.663 456.582 486.434C514.586 476.589 572.033 462.608 630.679 457.915C821.565 442.637 1008.72 526.298 1200.13 520.534C1262.79 518.647 1327.67 505.994 1377.51 467.97C1427.36 429.946 1457.87 361.753 1437.43 302.487Z" fill="url(#paint0_linear)"/>
<defs>
<linearGradient id="paint0_linear" x1="722.331" y1="16.6074" x2="722.331" y2="462.78" gradientUnits="userSpaceOnUse">
<stop offset="0.0058" stop-color="white" stop-opacity="0.5"/>
<stop offset="0.6199" stop-color="#FFC9A9" stop-opacity="0.2526"/>
<stop offset="0.9987" stop-color="#FFAA78" stop-opacity="0.1"/>
</linearGradient>
</defs>
</svg>
