<svg width="763" height="207" viewBox="0 0 763 207" fill="none" xmlns="http://www.w3.org/2000/svg">
<path d="M720.788 184.834C737.858 176.793 753.028 163.235 759.474 145.501C765.92 127.767 762.051 105.79 747.523 93.7479C735.72 83.9659 719.558 82.0099 704.711 78.1969C683.32 72.7029 663.132 62.5729 645.942 48.7069C633.552 38.7129 621.583 26.2639 605.815 24.0819C580.32 20.5549 560.09 44.9139 535.619 52.8899C507.315 62.1149 476.955 48.4489 451.354 33.2579C425.753 18.0669 399.206 0.370928 369.443 0.978928C336.219 1.65793 308.254 24.9189 283.936 47.5669C259.618 70.2149 233.472 94.7169 200.508 98.9159C174.741 102.198 149.251 92.3449 123.374 90.0819C84.7337 86.7029 44.8917 101.324 17.6097 128.894C5.32769 141.306 -4.75235 160.513 4.06965 175.583C10.4727 186.519 24.1627 190.412 36.5897 192.894C98.1687 205.192 161.384 206.159 224.178 206.489C397.3 207.4 571.005 203.755 742.295 178.614" fill="url(#paint0_linear)"/>
<defs>
<linearGradient id="paint0_linear" x1="381.606" y1="-5.29507" x2="381.606" y2="213.661" gradientUnits="userSpaceOnUse">
<stop offset="0.0058" stop-color="white" stop-opacity="0.5"/>
<stop offset="0.6199" stop-color="#FFC9A9" stop-opacity="0.2526"/>
<stop offset="0.9987" stop-color="#FFAA78" stop-opacity="0.1"/>
</linearGradient>
</defs>
</svg>
