<svg width="1268" height="292" viewBox="0 0 1268 292" fill="none" xmlns="http://www.w3.org/2000/svg">
<path d="M1168.11 261.13C1190.57 254.891 1213.49 248.447 1232.78 235.348C1252.06 222.248 1267.43 201.073 1267.36 177.758C1267.28 150.277 1245.56 126.469 1220.16 115.975C1194.76 105.481 1166.32 105.768 1138.9 107.551C1098.85 110.156 1058.98 115.606 1019.7 123.847C1003.65 127.215 987.119 131.063 971.015 127.949C932.614 120.522 911.914 78.0139 877.463 59.4949C837.235 37.8699 787.878 52.8729 745.188 69.1049C702.498 85.3369 654.569 102.481 612.667 84.3109C572.193 66.7599 549.09 20.4129 507.605 5.40794C465.307 -9.89106 419.124 12.3589 381.747 37.3819C310.787 84.8859 245.238 146.195 162.183 166.037C134.686 172.606 106.199 174.312 78.7368 181.025C51.2748 187.738 23.7868 200.479 7.52184 223.602C3.87884 228.782 0.778839 234.712 0.805839 241.045C0.864839 255.001 15.2288 264.163 28.2598 269.16C61.3839 281.86 97.2258 285.45 132.628 287.729C206.313 292.473 280.227 292.04 354.058 291.024C624.77 287.302 895.374 275.776 1165.42 256.467" fill="url(#paint0_linear)"/>
<defs>
<linearGradient id="paint0_linear" x1="634.081" y1="-3.54326" x2="634.081" y2="284.851" gradientUnits="userSpaceOnUse">
<stop offset="0.0058" stop-color="white" stop-opacity="0.5"/>
<stop offset="0.6199" stop-color="#FFC9A9" stop-opacity="0.2526"/>
<stop offset="0.9987" stop-color="#FFAA78" stop-opacity="0.1"/>
</linearGradient>
</defs>
</svg>
