<svg width="2799" height="900" viewBox="0 0 2799 900" fill="none" xmlns="http://www.w3.org/2000/svg">
<path d="M2258.49 315.864C2281.48 360.777 2303.77 405.977 2324.3 452.07C2344.95 498.401 2364.1 545.396 2381.72 592.959C2391.58 619.571 2400.57 646.456 2409.91 673.251C2409.99 673.486 2410.36 673.389 2410.28 673.147C2402.67 648.801 2393.94 624.751 2385.16 600.806C2376.48 577.133 2367.42 553.598 2357.99 530.214C2339.18 483.574 2318.89 437.529 2297.13 392.189C2284.79 366.483 2272.11 340.911 2258.62 315.793C2258.57 315.713 2258.45 315.784 2258.49 315.864Z" fill="white"/>
<path d="M2268.49 312.879C2273.18 311.176 2278.41 311.02 2283.19 312.439C2284.99 312.971 2286.79 313.774 2287.95 315.24C2290.49 318.446 2288.69 323.598 2285.21 325.751C2281.73 327.904 2277.3 327.746 2273.29 326.944C2277.27 326.373 2281 329.54 2282.57 333.246C2283.5 335.453 2283.85 338.054 2282.81 340.214C2281.93 342.052 2280.14 343.332 2278.23 344.029C2272.55 346.093 2265.5 342.853 2263.37 337.197C2263.77 340.2 2263.94 343.31 2263.06 346.208C2262.18 349.106 2260.07 351.777 2257.16 352.629C2253.28 353.765 2249 351.279 2247.09 347.718C2245.18 344.157 2245.23 339.843 2246.07 335.889C2246.99 331.494 2248.83 327.293 2251.43 323.63" fill="#238787"/>
<path d="M2224.7 329.547C2230.11 330.281 2238.06 329.175 2245.79 326.622C2253.51 324.07 2260.57 319.764 2266.94 314.704C2270.52 311.862 2278.41 301.487 2278.79 290.173C2278.87 287.788 2278.41 285.006 2277.06 283.177C2275.92 281.629 2273.34 282.082 2272.76 283.914C2272.22 285.603 2272.19 287.561 2272.06 289.363C2271.26 300.416 2264.41 310.616 2254.99 316.46C2245.58 322.304 2233.89 323.978 2222.97 322.101C2221.8 321.9 2220.6 321.66 2219.44 321.894C2218.27 322.127 2217.14 322.972 2216.98 324.147C2216.79 325.501 2217.9 326.679 2219.04 327.438C2220.73 328.566 2222.69 329.294 2224.7 329.547Z" fill="white"/>
<path d="M2268.95 280.344C2268.56 290.668 2264.03 300.776 2256.59 307.94C2249.15 315.104 2238.87 319.244 2228.54 319.242C2225.31 319.241 2221.72 318.661 2219.72 316.12C2218.38 314.413 2218.03 312.081 2218.37 309.936C2218.7 307.791 2219.65 305.793 2220.71 303.894C2229 288.921 2244.55 278.193 2261.49 275.752C2263.93 275.401 2268.32 276.432 2268.95 280.344Z" fill="white"/>
<path d="M2225.4 288.903C2213.44 278.611 2199.69 270.277 2185.38 263.671C2185.09 263.537 2184.84 263.967 2185.13 264.103C2199.54 270.821 2212.74 279.339 2225.32 289.013C2225.38 289.062 2225.46 288.955 2225.4 288.903Z" fill="white"/>
<path d="M2235.29 280.008C2225.17 266.036 2215.39 251.836 2205.85 237.46C2205.7 237.227 2205.32 237.442 2205.48 237.681C2214.8 252.197 2224.75 266.333 2235.15 280.087C2235.21 280.166 2235.35 280.091 2235.29 280.008Z" fill="white"/>
<path d="M2243.79 274.378C2238.49 257.242 2236.38 239.791 2237.19 221.885C2237.19 221.718 2236.94 221.722 2236.93 221.885C2235.41 239.493 2237.83 257.742 2243.65 274.418C2243.68 274.506 2243.82 274.47 2243.79 274.378Z" fill="white"/>
<path d="M2117.37 382.496C2153.02 418.139 2188.1 454.268 2221.79 491.784C2255.46 529.278 2287.94 567.847 2319.14 607.414C2336.94 629.984 2353.99 653.089 2371.33 676.009C2371.48 676.205 2371.82 676.02 2371.67 675.812C2357.21 655.366 2341.8 635.532 2326.38 615.803C2310.77 595.828 2294.84 576.104 2278.6 556.641C2246.11 517.715 2212.38 479.827 2177.45 443.08C2157.85 422.471 2137.98 402.093 2117.47 382.396C2117.4 382.334 2117.31 382.432 2117.37 382.496Z" fill="white"/>
<path d="M2125.97 376.584C2129.9 373.523 2134.84 371.765 2139.82 371.646C2141.69 371.601 2143.65 371.811 2145.21 372.848C2148.61 375.117 2148.48 380.575 2145.83 383.693C2143.18 386.811 2138.92 388.022 2134.86 388.493C2138.47 386.725 2142.99 388.593 2145.62 391.638C2147.19 393.451 2148.32 395.819 2148 398.192C2147.72 400.213 2146.42 401.98 2144.81 403.232C2140.04 406.943 2132.34 406.025 2128.57 401.298C2129.88 404.032 2130.99 406.94 2131.04 409.969C2131.1 412.998 2129.91 416.188 2127.41 417.892C2124.06 420.166 2119.23 419.116 2116.31 416.314C2113.4 413.513 2112.12 409.392 2111.7 405.374C2111.23 400.907 2111.69 396.344 2113.04 392.059" fill="#238787"/>
<path d="M2089.43 405.908C2094.79 404.945 2102.02 401.446 2108.59 396.642C2115.16 391.838 2120.55 385.571 2125.06 378.797C2127.59 374.993 2131.91 362.694 2128.79 351.811C2128.13 349.517 2126.84 347.011 2125 345.684C2123.43 344.562 2121.12 345.786 2121.13 347.709C2121.13 349.481 2121.7 351.355 2122.13 353.11C2124.77 363.872 2121.39 375.687 2114.23 384.142C2107.06 392.598 2096.46 397.785 2085.49 399.357C2084.31 399.525 2083.1 399.666 2082.06 400.245C2081.03 400.824 2080.21 401.977 2080.42 403.145C2080.65 404.491 2082.08 405.269 2083.39 405.642C2085.35 406.196 2087.43 406.288 2089.43 405.908Z" fill="white"/>
<path d="M2116.41 345.483C2119.21 355.427 2118.01 366.438 2113.13 375.544C2108.25 384.65 2099.74 391.748 2089.91 394.922C2086.84 395.915 2083.24 396.467 2080.56 394.663C2078.76 393.451 2077.71 391.34 2077.37 389.196C2077.02 387.052 2077.32 384.858 2077.74 382.728C2081.03 365.93 2092.52 350.94 2107.89 343.408C2110.1 342.324 2114.6 341.956 2116.41 345.483Z" fill="white"/>
<path d="M2077.58 367.013C2063.03 360.885 2047.36 357.199 2031.7 355.308C2031.39 355.269 2031.39 355.769 2031.7 355.808C2047.46 357.77 2062.61 361.833 2077.54 367.149C2077.63 367.179 2077.66 367.047 2077.58 367.013Z" fill="white"/>
<path d="M2084.25 355.505C2070.33 345.329 2056.68 334.826 2043.19 324.085C2042.97 323.912 2042.66 324.215 2042.88 324.394C2056.22 335.346 2070.03 345.747 2084.18 355.639C2084.26 355.698 2084.33 355.564 2084.25 355.505Z" fill="white"/>
<path d="M2090.63 347.546C2080.31 332.875 2072.94 316.914 2068.2 299.628C2068.16 299.468 2067.92 299.535 2067.95 299.697C2071.92 316.917 2079.84 333.544 2090.5 347.621C2090.55 347.696 2090.68 347.626 2090.63 347.546Z" fill="white"/>
<path d="M2119.35 249.475C2152.52 294.715 2184.89 340.46 2215.51 387.466C2246.12 434.452 2275.23 482.419 2302.76 531.271C2318.18 558.617 2332.74 586.393 2347.56 614.054C2347.68 614.277 2348.01 614.08 2347.9 613.857C2335.35 588.718 2321.71 564.067 2308 539.544C2294.36 515.137 2280.32 490.949 2265.91 466.991C2236.99 418.942 2206.54 371.816 2174.59 325.73C2156.71 299.944 2138.48 274.374 2119.48 249.404C2119.42 249.334 2119.3 249.401 2119.35 249.475Z" fill="white"/>
<path d="M2129.77 244.474C2134.6 241.792 2140.3 240.705 2145.78 241.421C2147.83 241.69 2149.95 242.253 2151.48 243.653C2154.82 246.716 2153.74 252.669 2150.31 255.633C2146.88 258.597 2142.01 259.199 2137.48 259.023C2141.74 257.701 2146.37 260.515 2148.73 264.296C2150.14 266.547 2150.98 269.332 2150.22 271.877C2149.57 274.043 2147.84 275.756 2145.87 276.853C2140.01 280.105 2131.74 277.792 2128.42 271.976C2129.39 275.192 2130.12 278.565 2129.66 281.891C2129.2 285.216 2127.36 288.507 2124.32 289.948C2120.28 291.87 2115.16 289.898 2112.45 286.336C2109.74 282.774 2109.04 278.045 2109.26 273.573C2109.5 268.602 2110.78 263.684 2112.98 259.221" fill="#238787"/>
<path d="M2084.77 270.371C2090.82 270.229 2099.33 267.627 2107.33 263.483C2115.34 259.339 2122.31 253.394 2128.4 246.742C2131.81 243.007 2138.63 230.275 2137.07 217.828C2136.74 215.204 2135.75 212.241 2133.96 210.475C2132.44 208.981 2129.69 209.928 2129.38 212.034C2129.08 213.975 2129.39 216.124 2129.56 218.119C2130.62 230.352 2124.91 242.712 2115.63 250.753C2106.35 258.794 2093.85 262.671 2081.57 262.527C2080.26 262.512 2078.91 262.459 2077.67 262.918C2076.44 263.377 2075.35 264.499 2075.38 265.813C2075.41 267.328 2076.84 268.421 2078.21 269.053C2080.26 269.992 2082.52 270.447 2084.77 270.371Z" fill="white"/>
<path d="M2124.59 208.794C2125.96 220.158 2122.78 232.011 2115.89 241.152C2109 250.293 2098.48 256.62 2087.17 258.424C2083.64 258.988 2079.61 258.982 2076.98 256.551C2075.21 254.917 2074.42 252.428 2074.41 250.022C2074.4 247.616 2075.1 245.264 2075.92 243.002C2082.37 225.168 2097.51 210.71 2115.62 205.075C2118.23 204.265 2123.2 204.626 2124.59 208.794Z" fill="white"/>
<path d="M2078.42 225.78C2063.48 216.667 2047.02 209.919 2030.2 205.187C2029.89 205.1 2029.76 205.581 2030.06 205.669C2046.97 210.484 2062.95 217.459 2078.35 225.901C2078.43 225.944 2078.5 225.827 2078.42 225.78Z" fill="white"/>
<path d="M2087.68 214.315C2074.14 200.81 2060.96 186.983 2048.01 172.908C2047.82 172.7 2047.52 173.008 2047.7 173.217C2060.45 187.457 2073.79 201.187 2087.57 214.425C2087.64 214.496 2087.75 214.387 2087.68 214.315Z" fill="white"/>
<path d="M2096 206.665C2087.17 188.873 2081.79 170.136 2079.59 150.41C2079.57 150.249 2079.32 150.242 2079.33 150.41C2080.79 169.964 2086.6 189.474 2095.87 206.74C2095.92 206.824 2096.04 206.75 2096 206.665Z" fill="white"/>
<path d="M2446.73 819.301C2427 800.156 2407.27 781.012 2387.54 761.867C2356.1 731.356 2323.67 699.363 2308.7 658.188C2306.6 652.421 2304.86 646.173 2306.32 640.213C2306.56 639.221 2306.92 638.2 2307.69 637.53C2309.14 636.275 2311.35 636.728 2313.16 637.362C2329.88 643.234 2341.69 657.896 2352.52 671.916C2387.54 717.25 2422.03 763.117 2452.26 811.776" fill="#1E7272"/>
<path d="M2451.24 810.145C2415.34 758.124 2384.63 707.838 2355.63 651.84C2346.73 634.664 2338.17 617.205 2332.48 598.718C2326.78 580.231 2324.04 560.561 2327 541.446C2327.75 536.65 2329.81 530.945 2334.61 530.221C2337.01 529.859 2339.38 530.939 2341.48 532.154C2353.37 539.042 2361.58 550.807 2368.4 562.741C2379.44 582.047 2387.87 602.715 2395.89 623.459C2418.93 683.074 2436.41 746.347 2453.01 808.065" fill="#1E7272"/>
<path d="M2450.85 814.16C2444.19 784.293 2437.76 754.375 2431.55 724.411C2426.88 701.88 2422.34 679.276 2420.11 656.376C2418.09 635.74 2418.05 614.432 2424.87 594.855C2425.43 593.261 2426.36 591.42 2428.04 591.291C2429.31 591.194 2430.4 592.159 2431.28 593.081C2441.59 603.861 2448.09 617.852 2451.82 632.298C2455.56 646.743 2456.68 661.726 2457.39 676.629C2459.51 721.04 2458.15 765.535 2456.78 809.975" fill="#1E7272"/>
<path d="M2428.44 595.209C2437.91 648.593 2440.3 702.692 2445.23 756.592C2446.59 771.446 2448.08 786.311 2450.26 801.068C2450.28 801.189 2450.49 801.161 2450.48 801.039C2447.09 774.002 2444.62 746.91 2442.52 719.745C2440.45 692.926 2438.48 666.087 2435.27 639.372C2433.5 624.579 2431.37 609.813 2428.51 595.188C2428.5 595.138 2428.43 595.16 2428.44 595.209Z" fill="#0E4A49"/>
<path d="M2333.65 531.732C2348.42 568.788 2364.66 605.266 2379.83 642.157C2394.48 677.763 2407.8 713.903 2422.71 749.398C2430.92 768.935 2439.59 788.337 2449.55 807.052C2449.64 807.221 2449.9 807.072 2449.81 806.902C2432.34 772.79 2417.91 737.369 2403.94 701.71C2389.68 665.289 2374.88 629.121 2359.69 593.074C2351.07 572.61 2342.7 552.008 2333.69 531.715C2333.68 531.697 2333.64 531.711 2333.65 531.732Z" fill="#0E4A49"/>
<path d="M2309.64 638.864C2326.64 661.693 2344.35 684.021 2361.97 706.374C2379.69 728.858 2397.57 751.209 2415.61 773.436C2425.81 786.008 2436 798.597 2446.4 811.013C2446.55 811.195 2446.8 810.935 2446.66 810.753C2410.53 766.328 2374.42 721.926 2339.21 676.773C2329.35 664.138 2319.65 651.384 2309.72 638.806C2309.68 638.766 2309.61 638.822 2309.64 638.864Z" fill="#0E4A49"/>
<path d="M2682.21 477.387C2661.09 499.748 2645.5 526.707 2631.56 554.12C2607.35 601.73 2587.47 651.583 2560.53 697.7C2533.58 743.817 2498.47 786.884 2451.62 812.538C2400.09 840.755 2338.22 845.955 2287.36 875.368C2278.3 880.61 2268.49 889.498 2271.01 899.537H2475.49C2482.93 879.289 2495.93 860.699 2513.12 845.964C2531.12 831.964 2553.12 826.964 2573.12 817.964C2617.12 796.964 2662.12 773.964 2684.12 728.964C2699.12 695.964 2706.12 661.964 2711.12 625.964C2718.41 578.598 2746.44 512.161 2798.99 509.007V417.317C2754.79 423.397 2712.84 444.938 2682.21 477.387Z" fill="#45ADA4"/>
<path d="M2711.12 626.103C2706.12 662.146 2699.12 696.186 2684.12 729.225C2662.12 774.278 2617.12 797.306 2573.12 818.33C2553.12 827.341 2531.13 832.346 2513.13 846.363C2495.93 861.116 2482.94 879.728 2475.49 900H2798.99V509.007C2746.44 512.165 2718.41 578.681 2711.12 626.103Z" fill="#229181"/>
<path d="M147.878 477.387C174.573 499.748 194.285 526.707 211.912 554.12C242.524 601.73 267.65 651.583 301.721 697.7C335.791 743.817 380.182 786.884 439.414 812.538C504.564 840.755 582.788 845.955 647.088 875.368C658.549 880.61 670.945 889.498 667.765 899.537H409.235C399.825 879.289 383.39 860.699 361.655 845.964C338.897 831.964 311.082 826.964 285.796 817.964C230.166 796.964 173.271 773.964 145.456 728.964C126.491 695.964 117.641 661.964 111.319 625.964C102.106 578.598 66.6607 512.161 0.219727 509.007V417.317C56.1087 423.397 109.141 444.938 147.878 477.387Z" fill="#3E9A92"/>
<path d="M111.31 625.964C117.632 661.964 126.482 695.964 145.447 728.964C173.262 773.964 230.157 796.964 285.787 817.964C311.073 826.964 338.889 831.964 361.646 845.964C383.382 860.699 399.816 879.289 409.226 899.537H0.210938V509.007C66.6519 512.161 102.097 578.599 111.31 625.964Z" fill="#229181"/>
<path d="M2374.86 152.873C2427.39 243.815 2476.05 337 2520.1 432.349C2564.16 527.741 2603.59 625.277 2637.81 724.63C2657.12 780.683 2674.74 837.309 2690.67 894.414C2691.7 898.128 2697.49 896.55 2696.45 892.819C2668.09 791.115 2634.27 690.964 2595.39 592.801C2556.71 495.165 2513.13 399.494 2465.21 306.05C2438.15 253.27 2409.71 201.204 2380.04 149.844C2378.11 146.502 2372.93 149.52 2374.86 152.873Z" fill="#228787"/>
<path d="M2411.16 213.562C2406.6 182.867 2407.44 151.374 2413.63 120.966C2415.3 112.791 2417.37 104.63 2420.96 97.099C2424.76 89.132 2432.37 81.1001 2440.98 83.0511C2449.7 85.0271 2453.04 95.708 2453.29 104.645C2453.74 120.672 2449.48 136.43 2444.83 151.773C2437.49 175.966 2429.09 199.836 2419.65 223.292" fill="#238787"/>
<path d="M2447.15 280.495C2448.42 245.017 2454.37 209.711 2464.79 175.774C2467.62 166.559 2470.81 157.37 2475.74 149.087C2479.15 143.355 2483.38 138.108 2488.25 133.551C2492.48 129.589 2498.81 126.018 2503.76 129.039C2505.51 130.11 2506.74 131.86 2507.75 133.652C2512.62 142.299 2513.39 152.784 2511.77 162.574C2510.15 172.364 2506.31 181.63 2502.36 190.734C2487.79 224.343 2471.36 257.149 2453.19 288.956" fill="#238787"/>
<path d="M2473.78 327.452C2479.78 291.6 2492.25 255.835 2516.29 228.567C2524.55 219.194 2534.61 210.666 2546.78 207.821C2549.22 207.252 2551.86 206.938 2554.14 207.957C2558.69 209.986 2559.59 216.027 2559.21 220.993C2557.82 239.081 2548.26 255.472 2537.79 270.287C2521.08 293.933 2501.4 315.48 2479.36 334.261" fill="#238787"/>
<path d="M2501.21 381.514C2505.6 361.181 2511.62 341.043 2521.34 322.65C2531.05 304.256 2544.65 287.601 2562.13 276.323C2567.6 272.79 2573.64 269.739 2580.14 269.278C2586.64 268.817 2593.68 271.442 2596.98 277.063C2599.3 281.023 2599.51 285.89 2598.92 290.443C2597.25 303.428 2589.8 314.918 2581.67 325.181C2570.81 338.897 2558.41 351.309 2546.04 363.686C2533.96 375.775 2521.29 388.243 2505.12 393.789" fill="#238787"/>
<path d="M2532.92 454.951C2541.35 429.756 2553.14 405.687 2567.88 383.582C2578.25 368.038 2590.3 353.243 2605.77 342.761C2610.52 339.541 2615.73 336.694 2621.44 336.057C2627.14 335.421 2633.43 337.411 2636.62 342.182C2639.44 346.407 2639.4 351.908 2638.66 356.936C2635.57 377.903 2622.53 396.02 2608.28 411.709C2588.87 433.078 2566.13 451.909 2539.75 463.623" fill="#238787"/>
<path d="M2561.99 516.532C2574.72 485.531 2592.81 456.74 2615.23 431.825C2625.31 420.614 2636.52 410.002 2650.14 403.53C2654.93 401.256 2660.11 399.495 2665.41 399.677C2670.71 399.859 2676.14 402.27 2678.91 406.791C2683.04 413.551 2680.17 422.313 2676.62 429.402C2661.36 459.945 2635.76 483.911 2609.82 506.108C2597.45 516.688 2584.58 527.207 2569.39 533.033" fill="#238787"/>
<path d="M2588.59 578.211C2605.22 542.372 2628.57 509.663 2657.06 482.289C2669.47 470.367 2683.17 459.255 2699.31 453.285C2706.55 450.605 2715.98 449.561 2720.85 455.553C2723.1 458.307 2723.81 461.998 2723.99 465.545C2724.58 476.971 2720.35 488.23 2714.12 497.829C2707.9 507.428 2699.75 515.599 2691.63 523.666C2661.74 553.391 2630.99 583.166 2593.91 603.215" fill="#238787"/>
<path d="M2606.96 634.985C2630.42 597.081 2660.61 563.351 2695.69 535.84C2711.98 523.065 2730.06 511.321 2750.53 508.234C2756.71 507.301 2763.65 507.386 2768.44 511.4C2773.29 515.453 2774.58 522.614 2773.18 528.772C2771.77 534.929 2768.11 540.306 2764.37 545.395C2727.6 595.399 2674.71 633.352 2615.56 652.174" fill="#238787"/>
<path d="M2623.04 683.22C2660.06 649.345 2701.88 617.93 2750.9 607.214C2758.05 605.65 2765.44 604.542 2772.68 605.643C2779.92 606.744 2787.05 610.326 2791.04 616.466C2796.35 624.638 2795.02 635.813 2790.04 644.187C2785.05 652.561 2777.02 658.636 2768.87 663.964C2728.29 690.462 2679.18 703.655 2630.79 701.053" fill="#238787"/>
<path d="M2635.89 725.569C2624.78 719.761 2612.45 716.681 2600.11 714.455C2578.46 710.548 2556.36 709.124 2534.38 710.221C2502.09 711.832 2468.03 720.018 2445.82 743.509C2439.77 749.906 2434.51 758.597 2436.82 767.094C2437.89 771.052 2440.52 774.439 2443.6 777.15C2453.44 785.816 2467.35 787.99 2480.46 788.403C2536.85 790.178 2590.8 766.364 2640.16 739.046" fill="#238787"/>
<path d="M2607.37 643.247C2573.69 639.643 2539.75 636.035 2506.02 639.102C2472.29 642.169 2438.38 652.401 2412.1 673.764C2409.15 676.157 2406.19 678.86 2405.01 682.466C2403.32 687.647 2405.79 693.356 2409.35 697.481C2415.13 704.171 2423.65 708.06 2432.34 709.652C2441.03 711.243 2449.97 710.719 2458.76 709.787C2512.39 704.105 2563.79 683.442 2609.2 654.358" fill="#238787"/>
<path d="M2590.99 596.93C2548.59 580.404 2503.29 571.361 2457.8 570.345C2441.76 569.987 2425.03 570.791 2410.93 578.452C2408.17 579.956 2405.47 581.775 2403.69 584.376C2399.86 590 2401.35 597.822 2404.83 603.671C2410.14 612.585 2419.4 618.623 2429.25 621.882C2439.1 625.141 2449.59 625.882 2459.96 626.214C2504.95 627.656 2550.17 621.809 2593.32 608.97" fill="#238787"/>
<path d="M2575.49 554.522C2533.64 530.178 2487.11 513.907 2439.21 506.861C2419.76 504 2398.87 502.877 2381.46 512.019C2378.99 513.316 2376.55 514.875 2375 517.188C2371.84 521.884 2373.18 528.309 2375.8 533.326C2380.85 543.001 2389.99 550.075 2400 554.431C2410.01 558.786 2420.9 560.661 2431.73 562.013C2478.83 567.892 2526.53 564.526 2573.87 561.153" fill="#238787"/>
<path d="M2536.43 466.389C2524.81 459.672 2511.36 457.018 2498.28 454.011C2471.46 447.845 2444.99 439.768 2417.69 436.342C2403.03 434.503 2387.38 434.199 2374.38 441.213C2371.3 442.872 2368.32 445.042 2366.75 448.162C2365.43 450.793 2365.23 453.881 2365.69 456.791C2366.86 464.329 2372.22 470.741 2378.72 474.735C2385.22 478.729 2392.79 480.6 2400.31 481.885C2446.03 489.694 2492.52 477.794 2538.81 474.929" fill="#238787"/>
<path d="M2501.94 389.007C2469.58 375.227 2433.56 373.542 2398.42 372.049C2387.51 371.586 2376.42 371.14 2365.84 373.849C2361.17 375.044 2356.27 377.183 2354.08 381.478C2351.53 386.498 2353.64 392.768 2357.19 397.139C2363.83 405.31 2374.55 408.895 2384.87 410.996C2398.9 413.855 2413.31 414.706 2427.63 414.111C2453.86 413.021 2479.89 407.055 2503.98 396.606" fill="#238787"/>
<path d="M2473.79 329.742C2453.97 324.306 2433.83 320.041 2413.51 316.975C2390.52 313.504 2366.78 311.606 2344.2 317.182C2339.16 318.426 2333.51 320.713 2332.03 325.689C2331.23 328.384 2331.89 331.304 2332.95 333.911C2337.26 344.57 2347.85 351.731 2359 354.528C2370.16 357.325 2381.89 356.349 2393.27 354.722C2420.95 350.765 2448.1 343.041 2473.71 331.831" fill="#238787"/>
<path d="M2450.91 286.326C2418.34 267.563 2382.65 254.237 2345.75 247.064C2338.2 245.595 2330.4 244.383 2322.84 245.841C2318.27 246.723 2313.65 248.782 2311.09 252.674C2306.22 260.111 2311.01 270.204 2317.34 276.45C2325.87 284.86 2336.98 290.214 2348.4 293.819C2381.61 304.307 2417.85 300.861 2451.4 291.51" fill="#238787"/>
<path d="M2416.1 217.927C2385.4 196.837 2352.92 175.235 2315.87 171.324C2305.34 170.212 2293.7 170.939 2285.75 177.928C2284.34 179.167 2283.04 180.642 2282.51 182.442C2281.9 184.496 2282.34 186.711 2282.98 188.757C2286.3 199.439 2294.57 208.06 2304.13 213.866C2313.7 219.672 2324.55 222.962 2335.36 225.819C2362.95 233.105 2393.01 237.784 2419.42 226.996" fill="#238787"/>
<path d="M2386.34 162.372C2378.66 134.183 2370.1 106.199 2359.41 79.01C2349.45 53.688 2336.9 28.1229 2315.35 11.5089C2310.64 7.87094 2305.43 4.66798 2299.63 3.30698C2293.83 1.94598 2287.34 2.63299 2282.56 6.19199C2274.84 11.938 2273.7 23.065 2274.94 32.604C2278.53 60.198 2296.04 84.086 2316.08 103.395C2336.12 122.704 2359.17 138.766 2378.47 158.808" fill="#238787"/>
<path d="M2288.65 0.68103C2306.65 44.898 2326.77 88.9879 2355.84 127.164C2363.91 137.766 2372.65 147.896 2382.17 157.231C2382.36 157.418 2382.65 157.127 2382.46 156.938C2348.63 123.18 2324.79 81.573 2305.08 38.383C2299.39 25.916 2294.03 13.303 2288.79 0.640991C2288.75 0.553991 2288.61 0.59203 2288.65 0.68103Z" fill="#165D5C"/>
<path d="M2352.63 121.88C2352.46 114.273 2352.11 106.735 2352.55 99.125C2353.02 91.202 2354.29 83.4569 2355.49 75.6259C2355.51 75.4709 2355.29 75.399 2355.25 75.56C2353.46 82.905 2352.67 90.625 2352.22 98.158C2351.75 106 2351.58 114.075 2352.59 121.881C2352.6 121.904 2352.63 121.906 2352.63 121.88Z" fill="#165D5C"/>
<path d="M2322.67 73.201C2323.03 64.962 2323.66 56.846 2325.33 48.75C2326.94 40.973 2329.37 33.458 2332.38 26.115C2332.47 25.888 2332.07 25.719 2331.98 25.946C2325.72 40.577 2321.97 57.229 2322.6 73.201C2322.61 73.241 2322.67 73.241 2322.67 73.201Z" fill="#165D5C"/>
<path d="M2277.86 49.143C2283.42 46.555 2289.4 48.951 2294.9 50.51C2300.79 52.176 2306.66 53.952 2312.58 55.505C2312.83 55.57 2312.93 55.195 2312.69 55.121C2305.88 53.067 2298.98 51.264 2292.14 49.341C2287.61 48.069 2282.13 46.266 2277.81 49.056C2277.76 49.091 2277.81 49.171 2277.86 49.143Z" fill="#165D5C"/>
<path d="M2307.07 95.21C2311.74 94.568 2316.37 93.986 2321.09 93.938C2323.29 93.916 2325.49 93.983 2327.68 94.141C2330.09 94.314 2333.06 94.201 2335.01 95.843C2335.24 96.041 2335.58 95.715 2335.35 95.5C2334.23 94.464 2332.92 94.198 2331.44 94.013C2328.64 93.666 2325.8 93.538 2322.98 93.524C2317.66 93.498 2312.24 93.913 2307.05 95.14C2307 95.153 2307.02 95.216 2307.07 95.21Z" fill="#165D5C"/>
<path d="M2438.77 82.911C2436.87 91.233 2435.63 99.745 2433.98 108.123C2432.32 116.518 2430.58 124.896 2428.75 133.254C2425.12 149.79 2420.92 166.208 2417.77 182.846C2416.07 191.836 2414.73 200.888 2413.97 210.009C2413.94 210.325 2414.43 210.323 2414.46 210.009C2415.86 193.081 2419.37 176.45 2423.15 159.92C2426.91 143.532 2430.63 127.147 2433.89 110.652C2435.7 101.48 2437.81 92.2189 2438.95 82.9359C2438.97 82.8309 2438.79 82.809 2438.77 82.911Z" fill="#165D5C"/>
<path d="M2418.02 187.479C2421.19 185.511 2424.85 182.413 2428.23 180.087C2431.97 177.519 2435.82 175.165 2439.72 172.858C2439.98 172.702 2439.75 172.297 2439.48 172.447C2431.77 176.754 2423.6 181.841 2417.2 187.987C2417.11 188.078 2417.25 188.221 2417.35 188.131C2417.57 187.92 2417.8 187.708 2418.03 187.497C2418.04 187.489 2418.03 187.472 2418.02 187.479Z" fill="#165D5C"/>
<path d="M2428.98 131.696C2436.66 123.45 2444.91 115.912 2453.45 108.571C2453.67 108.381 2453.35 108.082 2453.13 108.256C2444.33 115.199 2436.29 123.223 2428.92 131.641C2428.89 131.678 2428.94 131.733 2428.98 131.696Z" fill="#165D5C"/>
<path d="M2417.46 105.753C2416.91 111.341 2419.3 117.466 2420.95 122.72C2422.7 128.3 2424.74 133.808 2427.15 139.138C2427.28 139.418 2427.68 139.175 2427.56 138.898C2425.22 133.564 2423.07 128.175 2421.3 122.624C2419.57 117.204 2417.66 111.477 2417.52 105.754C2417.52 105.712 2417.47 105.714 2417.46 105.753Z" fill="#165D5C"/>
<path d="M2409.47 152.538C2408.31 156.253 2410.95 161.13 2412.35 164.517C2414.07 168.694 2416.15 172.702 2418.5 176.558C2418.66 176.82 2419.07 176.58 2418.91 176.317C2416.87 172.997 2415.03 169.567 2413.44 166.005C2412.6 164.105 2411.81 162.18 2411.09 160.226C2410.22 157.836 2408.95 155.124 2409.56 152.563C2409.58 152.504 2409.49 152.48 2409.47 152.538Z" fill="#165D5C"/>
<path d="M2503.44 127.648C2499.03 137.143 2495.22 146.955 2491.27 156.646C2487.2 166.617 2483.19 176.613 2479.25 186.635C2471.6 206.078 2464.25 225.671 2458.31 245.713C2454.99 256.929 2452.12 268.28 2449.9 279.768C2449.85 280.038 2450.26 280.154 2450.32 279.882C2458.31 238.875 2474.19 199.882 2489.78 161.295C2494.31 150.081 2499.22 138.984 2503.5 127.676C2503.52 127.638 2503.46 127.612 2503.44 127.648Z" fill="#165D5C"/>
<path d="M2458.99 244.609C2466.84 240.482 2474.6 236.208 2482.39 231.959C2482.68 231.8 2482.42 231.353 2482.13 231.514C2474.37 235.805 2466.6 240.07 2458.91 244.481C2458.83 244.528 2458.9 244.653 2458.99 244.609Z" fill="#165D5C"/>
<path d="M2479.1 186.582C2484.41 184.5 2489.48 181.69 2494.6 179.192C2500.03 176.542 2505.46 173.882 2510.88 171.22C2511.21 171.058 2510.92 170.566 2510.59 170.727C2505.32 173.324 2500.05 175.921 2494.78 178.529C2489.55 181.121 2484.07 183.482 2479.06 186.488C2479.01 186.517 2479.05 186.603 2479.1 186.582Z" fill="#165D5C"/>
<path d="M2476.6 146.888C2476.38 149.062 2476.94 151.253 2477.36 153.378C2477.89 156.051 2478.51 158.707 2479.18 161.347C2480.48 166.442 2481.9 171.621 2483.86 176.504C2483.97 176.776 2484.41 176.674 2484.32 176.379C2481.31 166.78 2477.64 156.98 2476.7 146.889C2476.69 146.827 2476.61 146.828 2476.6 146.888Z" fill="#165D5C"/>
<path d="M2459.91 196.729C2459.03 198.466 2459.38 200.203 2459.79 202.039C2460.42 204.857 2461.21 207.641 2462.11 210.384C2462.97 212.984 2463.93 215.548 2464.99 218.069C2465.43 219.118 2465.9 221.478 2467.05 221.903C2467.22 221.966 2467.35 221.807 2467.37 221.662C2467.38 221.597 2467.38 221.532 2467.39 221.467C2467.41 221.355 2467.29 221.256 2467.18 221.257C2467.14 221.257 2467.09 221.258 2467.04 221.258C2466.91 221.259 2466.81 221.441 2466.93 221.531C2466.61 221.281 2466.03 219.211 2465.81 218.713C2465.33 217.618 2464.87 216.516 2464.43 215.404C2463.71 213.565 2463.03 211.705 2462.42 209.827C2461.17 206.036 2458.88 200.717 2459.99 196.762C2460 196.716 2459.93 196.685 2459.91 196.729Z" fill="#165D5C"/>
<path d="M2417.68 224.339C2410.28 219.064 2401.97 215.042 2393.69 211.362C2385.42 207.69 2376.99 204.347 2368.52 201.186C2350.81 194.583 2332.67 188.489 2314.16 184.577C2304.12 182.455 2293.94 181.162 2283.67 181.105C2283.3 181.103 2283.3 181.675 2283.67 181.675C2302.14 181.675 2320.24 186.028 2337.81 191.37C2355.67 196.798 2373.3 203.142 2390.45 210.505C2399.86 214.54 2408.84 219.205 2417.6 224.481C2417.69 224.536 2417.77 224.399 2417.68 224.339Z" fill="#165D5C"/>
<path d="M2311.38 170.94C2313.17 176.31 2315.51 181.594 2317.74 186.797C2317.84 187.018 2318.22 186.858 2318.13 186.631C2316.05 181.374 2313.97 175.976 2311.45 170.907C2311.43 170.864 2311.36 170.894 2311.38 170.94Z" fill="#165D5C"/>
<path d="M2296.04 208.042C2304.39 201.183 2312.14 193.47 2320.1 186.166C2320.35 185.938 2319.98 185.568 2319.73 185.796C2311.78 193.112 2303.45 200.178 2295.92 207.92C2295.84 208.001 2295.95 208.11 2296.04 208.042Z" fill="#165D5C"/>
<path d="M2352.56 180.586C2356.5 186.422 2360.08 191.836 2361.75 198.818C2361.82 199.111 2362.28 198.985 2362.2 198.693C2360.41 192.27 2357.51 185.249 2352.59 180.557C2352.58 180.539 2352.54 180.563 2352.56 180.586Z" fill="#165D5C"/>
<path d="M2362.89 198.818C2359.06 202.728 2355.47 206.897 2351.77 210.928C2348.07 214.962 2344.18 218.857 2340.57 222.973C2340.42 223.138 2340.65 223.372 2340.81 223.216C2344.72 219.388 2348.35 215.228 2352.03 211.187C2355.72 207.142 2359.5 203.118 2362.91 198.84C2362.93 198.825 2362.91 198.804 2362.89 198.818Z" fill="#165D5C"/>
<path d="M2395.96 212.951C2394.59 213.974 2393.94 215.454 2393.05 216.892C2391.75 218.995 2390.33 221.026 2388.79 222.96C2386.01 226.46 2382.79 229.371 2379.52 232.386C2379.41 232.489 2379.56 232.694 2379.68 232.601C2383 230.163 2385.92 227.017 2388.5 223.832C2389.73 222.322 2390.89 220.754 2391.96 219.132C2393.31 217.104 2394.32 214.761 2395.98 212.977C2396 212.963 2395.98 212.94 2395.96 212.951Z" fill="#165D5C"/>
<path d="M2395.59 211.695C2394.5 211.347 2393.93 207.989 2393.58 206.958C2393.06 205.428 2392.57 203.891 2391.99 202.385C2391.88 202.114 2391.46 202.217 2391.54 202.508C2392.23 204.824 2393.07 207.105 2393.88 209.382C2394.2 210.306 2394.37 211.835 2395.57 211.871C2395.67 211.875 2395.68 211.725 2395.59 211.695Z" fill="#165D5C"/>
<path d="M2450.75 288.279C2441.49 286.585 2432.12 285.471 2422.85 283.89C2413.56 282.307 2404.3 280.555 2395.07 278.646C2376.77 274.86 2358.61 270.443 2340.62 265.38C2330.32 262.48 2320.08 259.366 2309.9 256.057C2309.54 255.939 2309.38 256.512 2309.74 256.63C2345.75 268.331 2382.56 277.492 2419.87 283.911C2430.08 285.667 2440.4 287.577 2450.73 288.448C2450.82 288.456 2450.85 288.297 2450.75 288.279Z" fill="#165D5C"/>
<path d="M2339.08 245.357C2338.56 246.452 2339.81 247.427 2340.45 248.244C2342.37 250.708 2344.33 253.144 2346.33 255.55C2350.33 260.359 2354.44 265.061 2358.66 269.674C2358.88 269.916 2359.24 269.555 2359.02 269.315C2355.63 265.639 2352.31 261.907 2349.05 258.117C2347.42 256.222 2345.81 254.308 2344.22 252.387C2343.21 251.175 2338.74 247.027 2339.15 245.387C2339.16 245.346 2339.1 245.316 2339.08 245.357Z" fill="#165D5C"/>
<path d="M2336.04 289.707C2341.25 288.105 2346.09 285.057 2350.72 282.234C2355.84 279.109 2360.96 275.975 2366.02 272.75C2366.29 272.575 2366.04 272.141 2365.76 272.312C2360.76 275.349 2355.85 278.526 2350.88 281.603C2346.04 284.593 2341.08 287.098 2336 289.629C2335.96 289.651 2335.99 289.722 2336.04 289.707Z" fill="#165D5C"/>
<path d="M2388.23 258.921C2390.78 262.567 2393.9 265.892 2396.76 269.304C2399.84 272.985 2402.93 276.66 2406.01 280.337C2406.22 280.587 2406.58 280.226 2406.37 279.978C2403.38 276.439 2400.39 272.898 2397.4 269.362C2394.43 265.851 2391.59 262.087 2388.33 258.845C2388.28 258.797 2388.19 258.862 2388.23 258.921Z" fill="#165D5C"/>
<path d="M2419.23 282.94C2409.17 288.925 2399.43 295.497 2389.63 301.9C2389.38 302.059 2389.61 302.452 2389.85 302.291C2399.65 295.864 2409.63 289.664 2419.27 283.008C2419.31 282.979 2419.28 282.914 2419.23 282.94Z" fill="#165D5C"/>
<path d="M2554.62 207.468C2542.57 222.19 2531.62 237.972 2521.13 253.828C2510.44 269.974 2500.4 286.548 2491.04 303.496C2485.74 313.094 2480.51 322.784 2475.81 332.691C2475.69 332.929 2476.04 333.139 2476.16 332.9C2484.96 315.802 2493.86 298.825 2503.72 282.303C2513.56 265.806 2524.05 249.696 2535.16 234.026C2541.51 225.069 2548.21 216.384 2554.75 207.572C2554.81 207.495 2554.68 207.393 2554.62 207.468Z" fill="#165D5C"/>
<path d="M2492.14 302.02C2496.99 301.345 2501.88 299.534 2506.49 297.945C2510.92 296.418 2515.27 294.682 2519.56 292.781C2519.87 292.641 2519.6 292.174 2519.28 292.316C2514.77 294.353 2510.17 296.199 2505.49 297.813C2501.09 299.331 2496.48 300.307 2492.11 301.892C2492.03 301.922 2492.06 302.031 2492.14 302.02Z" fill="#165D5C"/>
<path d="M2501.94 284.671C2501.88 279.661 2499.8 274.941 2498.91 270.058C2497.84 264.249 2498.18 258.676 2498.91 252.862C2498.94 252.639 2498.57 252.593 2498.52 252.809C2497.38 257.829 2497.45 263.248 2498.19 268.321C2499 273.874 2501.09 279.116 2501.85 284.683C2501.85 284.736 2501.94 284.722 2501.94 284.671Z" fill="#165D5C"/>
<path d="M2524.68 220.724C2524.01 228.376 2524.56 237.054 2526.64 244.477C2526.7 244.681 2526.98 244.59 2526.95 244.392C2526.35 240.307 2525.51 236.296 2525.16 232.169C2524.83 228.353 2524.85 224.548 2524.79 220.724C2524.79 220.647 2524.68 220.649 2524.68 220.724Z" fill="#165D5C"/>
<path d="M2523.07 252.004C2527.43 252.401 2531.89 251.104 2536.13 250.223C2541.02 249.208 2545.93 248.26 2550.8 247.142C2551.09 247.075 2550.97 246.642 2550.68 246.698C2546.1 247.579 2541.55 248.624 2536.99 249.598C2532.37 250.587 2527.82 251.739 2523.07 251.847C2522.96 251.85 2522.97 251.995 2523.07 252.004Z" fill="#165D5C"/>
<path d="M2594.02 272.235C2568.8 300.793 2545.1 330.852 2521.69 360.907C2515.52 368.831 2508.54 376.645 2503.95 385.628C2503.81 385.896 2504.22 386.134 2504.35 385.865C2508.57 377.612 2514.87 370.438 2520.52 363.156C2526.3 355.719 2532.12 348.313 2537.97 340.937C2549.68 326.183 2561.54 311.556 2573.52 297.02C2580.34 288.748 2587.3 280.587 2594.06 272.274C2594.08 272.247 2594.05 272.208 2594.02 272.235Z" fill="#165D5C"/>
<path d="M2521.36 360.615C2521.31 360.691 2521.26 360.767 2521.22 360.844C2521.2 360.874 2521.2 360.913 2521.23 360.938C2522.25 362.036 2524.6 361.224 2525.92 361.091C2528.68 360.813 2531.44 360.472 2534.19 360.078C2540.12 359.228 2546.1 358.203 2551.9 356.68C2552.2 356.6 2552.08 356.148 2551.77 356.213C2547 357.234 2542.26 358.324 2537.45 359.133C2534.9 359.56 2532.35 359.942 2529.79 360.273C2528.5 360.44 2527.21 360.592 2525.92 360.735C2525.6 360.77 2521.24 361.227 2521.45 360.655C2521.47 360.598 2521.39 360.567 2521.36 360.615Z" fill="#165D5C"/>
<path d="M2531.97 348.076C2530.49 341.684 2529.04 335.365 2528.38 328.821C2527.77 322.804 2527.1 316.193 2528.8 310.308C2528.89 310.008 2528.42 309.88 2528.33 310.179C2526.61 316.131 2527.27 322.746 2527.92 328.821C2528.61 335.319 2529.74 341.91 2531.86 348.105C2531.88 348.171 2531.98 348.145 2531.97 348.076Z" fill="#165D5C"/>
<path d="M2557.17 278.793C2555.95 284.86 2555.48 291.077 2555.49 297.26C2555.51 303.31 2555.72 309.86 2557.26 315.743C2557.3 315.904 2557.58 315.878 2557.56 315.703C2556.98 309.519 2555.97 303.501 2555.91 297.261C2555.85 291.068 2556.41 284.936 2557.21 278.8C2557.21 278.776 2557.17 278.772 2557.17 278.793Z" fill="#165D5C"/>
<path d="M2563.09 309.309C2568.63 309.127 2574.28 308.056 2579.73 307.055C2585.52 305.99 2591.32 304.731 2596.99 303.095C2597.29 303.009 2597.16 302.551 2596.86 302.628C2591.29 304.053 2585.72 305.438 2580.07 306.515C2574.43 307.59 2568.71 308.142 2563.07 309.172C2562.99 309.186 2563.01 309.312 2563.09 309.309Z" fill="#165D5C"/>
<path d="M2502.7 390.842C2482.74 393.891 2462.99 397.561 2442.72 397.64C2422.92 397.717 2403.52 393.98 2384.09 390.643C2373.68 388.855 2363.21 387.139 2352.66 386.448C2352.31 386.425 2352.32 386.95 2352.66 386.979C2372.43 388.684 2391.78 392.923 2411.4 395.738C2430.84 398.527 2450.16 398.687 2469.66 396.366C2480.73 395.048 2491.84 393.338 2502.74 390.977C2502.83 390.958 2502.79 390.828 2502.7 390.842Z" fill="#165D5C"/>
<path d="M2394.22 392.202C2391.22 384.294 2385.89 376.875 2379.86 370.991C2379.62 370.756 2379.25 371.12 2379.49 371.361C2385.63 377.618 2390.12 384.493 2394.12 392.247C2394.15 392.305 2394.25 392.265 2394.22 392.202Z" fill="#165D5C"/>
<path d="M2392.2 412.435C2396.23 411.178 2400.15 408.2 2403.5 405.683C2407.01 403.035 2410.34 400.07 2413.25 396.767C2413.45 396.546 2413.13 396.224 2412.93 396.441C2409.81 399.739 2406.57 402.841 2402.94 405.569C2399.52 408.135 2395.61 409.911 2392.18 412.393C2392.16 412.406 2392.17 412.443 2392.2 412.435Z" fill="#165D5C"/>
<path d="M2437.24 373.61C2443.33 380.918 2448.62 388.209 2452.32 397.037C2452.46 397.357 2452.9 397.176 2452.77 396.85C2449.17 388.386 2444.12 379.831 2437.38 373.466C2437.29 373.375 2437.16 373.51 2437.24 373.61Z" fill="#165D5C"/>
<path d="M2473.52 395.635C2472.53 398.015 2472.13 400.513 2470.87 402.81C2469.63 405.068 2467.89 406.945 2466.1 408.774C2465.88 408.997 2466.22 409.336 2466.45 409.116C2470.04 405.561 2473.36 400.896 2473.59 395.646C2473.6 395.598 2473.53 395.597 2473.52 395.635Z" fill="#165D5C"/>
<path d="M2471.25 329.797C2462.31 329.338 2453.26 329.731 2444.3 329.717C2435.32 329.704 2426.34 329.679 2417.35 329.607C2399.55 329.464 2381.76 329.179 2363.96 328.75C2353.82 328.506 2343.67 328.162 2333.53 327.885C2333.2 327.876 2333.21 328.38 2333.53 328.393C2369.26 329.774 2405.06 330.181 2440.81 330.205C2450.92 330.212 2461.17 330.574 2471.25 329.891C2471.31 329.887 2471.31 329.8 2471.25 329.797Z" fill="#165D5C"/>
<path d="M2352.08 315.674C2355.75 319.492 2358.72 323.645 2361.94 327.811C2362.05 327.946 2362.24 327.774 2362.17 327.636C2359.79 323.132 2355.93 318.964 2352.17 315.591C2352.11 315.541 2352.03 315.62 2352.08 315.674Z" fill="#165D5C"/>
<path d="M2378.85 328.989C2372.68 338.773 2365.45 347.035 2356.2 354.004C2356.01 354.149 2356.19 354.478 2356.39 354.335C2365.57 347.896 2373.73 339 2378.92 329.033C2378.95 328.984 2378.88 328.942 2378.85 328.989Z" fill="#165D5C"/>
<path d="M2411.05 329.681C2408.85 338.295 2405.56 345.762 2400.39 353.004C2400.25 353.19 2400.56 353.43 2400.71 353.25C2406.04 346.683 2409.98 338.11 2411.2 329.721C2411.21 329.629 2411.08 329.586 2411.05 329.681Z" fill="#165D5C"/>
<path d="M2412.59 316.93C2415.69 318.559 2418.64 320.368 2421.31 322.655C2423.81 324.798 2425.73 327.3 2427.89 329.752C2428.01 329.887 2428.23 329.714 2428.14 329.563C2424.83 323.954 2418.57 319.313 2412.68 316.776C2412.58 316.73 2412.48 316.875 2412.59 316.93Z" fill="#165D5C"/>
<path d="M2365.02 451.283C2373.79 456.455 2383.74 459.185 2393.64 461.28C2404.57 463.596 2415.62 465.472 2426.7 466.958C2449.17 469.972 2471.51 470.141 2494.13 469.201C2507.07 468.663 2520.02 468.087 2532.97 467.587C2533.33 467.573 2533.33 467.008 2532.97 467.025C2510.6 468.069 2488.12 469.578 2465.72 469.408C2443.13 469.237 2420.72 466.154 2398.57 461.89C2386.97 459.656 2375.56 456.816 2365.12 451.108C2365.01 451.045 2364.91 451.217 2365.02 451.283Z" fill="#165D5C"/>
<path d="M2538.13 459.711C2548.04 442.269 2557.79 424.861 2569.15 408.299C2580.58 391.649 2593.21 375.788 2607.39 361.403C2615.27 353.419 2623.62 345.923 2632.44 338.996C2632.67 338.816 2632.35 338.497 2632.12 338.676C2600.53 363.492 2575.54 395.6 2554.82 429.793C2548.91 439.54 2543.11 449.44 2537.98 459.625C2537.93 459.723 2538.08 459.808 2538.13 459.711Z" fill="#165D5C"/>
<path d="M2597.4 349.695C2594.63 358.323 2593.09 367.364 2592.41 376.391C2592.39 376.667 2592.82 376.666 2592.84 376.391C2593.52 367.324 2595.2 358.508 2597.48 349.716C2597.49 349.667 2597.42 349.647 2597.4 349.695Z" fill="#165D5C"/>
<path d="M2579.02 393.907C2586.88 395.702 2595.29 395.91 2603.31 395.489C2607.08 395.291 2610.83 394.9 2614.55 394.32C2618.35 393.729 2622.74 393.287 2626.19 391.519C2626.45 391.387 2626.22 391.017 2625.97 391.135C2622.44 392.75 2618.24 393.281 2614.44 393.885C2610.29 394.542 2606.1 394.955 2601.91 395.129C2594.19 395.449 2586.68 394.638 2579.03 393.808C2578.98 393.801 2578.97 393.894 2579.02 393.907Z" fill="#165D5C"/>
<path d="M2556.03 427.977C2562.62 428.861 2569.57 428.471 2576.17 427.913C2582.57 427.372 2588.92 426.341 2595.18 424.9C2595.48 424.83 2595.36 424.362 2595.05 424.433C2588.52 425.959 2581.9 427.027 2575.21 427.571C2568.79 428.093 2562.45 427.784 2556.03 427.844C2555.94 427.845 2555.95 427.966 2556.03 427.977Z" fill="#165D5C"/>
<path d="M2558.69 396.41C2557.61 403.812 2559.06 411.494 2561.99 418.313C2562.11 418.589 2562.51 418.351 2562.39 418.076C2559.38 411.116 2558.52 403.959 2558.88 396.436C2558.89 396.328 2558.71 396.3 2558.69 396.41Z" fill="#165D5C"/>
<path d="M2485.78 469.935C2481.75 461.137 2474.76 453.179 2467.88 446.5C2467.61 446.237 2467.19 446.655 2467.47 446.914C2470.94 450.203 2474.18 453.721 2477.14 457.485C2480.28 461.483 2482.83 465.806 2485.69 469.99C2485.73 470.049 2485.81 469.999 2485.78 469.935Z" fill="#165D5C"/>
<path d="M2465.53 469.587C2463.48 471.993 2461.65 474.579 2459.54 476.95C2458.54 478.079 2457.51 479.18 2456.45 480.255C2455.22 481.504 2453.12 484.142 2451.23 484C2451.02 483.985 2450.98 484.312 2451.18 484.353C2453.82 484.905 2456.47 480.87 2458 479.24C2460.74 476.311 2463.59 473.14 2465.63 469.663C2465.67 469.604 2465.58 469.532 2465.53 469.587Z" fill="#165D5C"/>
<path d="M2431.96 467.15C2430.46 460.968 2426.59 454.885 2422.9 449.798C2419.04 444.483 2414.48 439.708 2409.34 435.62C2409.08 435.413 2408.71 435.778 2408.97 435.99C2414.16 440.177 2418.81 444.962 2422.71 450.384C2426.52 455.684 2428.9 461.448 2431.91 467.169C2431.93 467.192 2431.96 467.176 2431.96 467.15Z" fill="#165D5C"/>
<path d="M2392.69 481.749C2396.99 479.115 2401.01 475.973 2404.84 472.689C2406.81 471 2408.76 469.263 2410.58 467.421C2411.81 466.187 2412.81 464.994 2412.99 463.219C2413.02 462.959 2412.57 462.895 2412.53 463.157C2412.16 465.691 2410.05 467.34 2408.28 469.013C2406.73 470.486 2405.14 471.916 2403.51 473.304C2400.03 476.278 2396.33 478.951 2392.64 481.661C2392.59 481.699 2392.63 481.783 2392.69 481.749Z" fill="#165D5C"/>
<path d="M2673.25 401.996C2640.74 429.807 2611.46 461.481 2586.01 495.854C2578.75 505.663 2571.82 515.712 2565.17 525.944C2565.03 526.159 2565.37 526.36 2565.51 526.145C2588.73 490.07 2616.13 456.641 2646.8 426.643C2655.42 418.211 2664.32 410.076 2673.41 402.162C2673.53 402.063 2673.36 401.899 2673.25 401.996Z" fill="#165D5C"/>
<path d="M2584.33 498.631C2599.71 497.767 2615.34 493.413 2629.7 488.058C2630.04 487.933 2629.89 487.387 2629.56 487.516C2622.27 490.266 2614.84 492.585 2607.26 494.399C2599.67 496.219 2592.01 497.243 2584.31 498.477C2584.23 498.491 2584.25 498.636 2584.33 498.631Z" fill="#165D5C"/>
<path d="M2603.7 473.697C2604.52 467.691 2604.98 461.673 2606.07 455.699C2607.16 449.709 2608.79 443.903 2610.38 438.035C2610.45 437.766 2610.05 437.661 2609.96 437.921C2607.96 443.783 2606.62 449.954 2605.54 456.047C2604.51 461.816 2603.57 467.818 2603.63 473.688C2603.63 473.725 2603.7 473.737 2603.7 473.697Z" fill="#165D5C"/>
<path d="M2641.86 408.255C2641.23 411.65 2641.6 415.393 2641.91 418.811C2642.23 422.309 2642.71 425.882 2643.66 429.265C2643.72 429.476 2644.02 429.385 2643.99 429.176C2643.34 425.559 2642.61 422.006 2642.29 418.333C2642 414.985 2642.25 411.593 2641.93 408.266C2641.93 408.225 2641.87 408.208 2641.86 408.255Z" fill="#165D5C"/>
<path d="M2634.58 439.389C2648.17 440.249 2662.27 437.648 2675.16 433.483C2675.47 433.383 2675.34 432.892 2675.03 432.993C2661.78 437.304 2648.43 438.803 2634.58 439.24C2634.48 439.243 2634.48 439.383 2634.58 439.389Z" fill="#165D5C"/>
<path d="M2717.45 452.413C2700.7 469.944 2684.75 488.308 2668.54 506.337C2652.42 524.261 2636.38 542.25 2620.37 560.276C2611.28 570.524 2602.2 580.787 2593.13 591.065C2592.93 591.29 2593.26 591.623 2593.46 591.396C2625.46 555.11 2657.66 519.013 2690.05 483.079C2699.22 472.903 2708.6 462.881 2717.55 452.513C2717.61 452.444 2717.51 452.347 2717.45 452.413Z" fill="#165D5C"/>
<path d="M2627.05 552.598C2630.94 552.672 2634.95 551.962 2638.8 551.482C2642.57 551.013 2646.33 550.487 2650.08 549.906C2656.84 548.86 2663.67 547.76 2669.74 544.455C2670.06 544.282 2669.78 543.795 2669.46 543.969C2663.3 547.352 2656.33 548.435 2649.47 549.514C2645.6 550.124 2641.71 550.67 2637.82 551.162C2634.25 551.613 2630.56 551.774 2627.04 552.528C2627 552.537 2627.01 552.597 2627.05 552.598Z" fill="#165D5C"/>
<path d="M2673.29 501.085C2687.57 502.527 2701.5 499.739 2715.29 496.487C2715.67 496.398 2715.5 495.781 2715.13 495.907C2701.73 500.529 2687.3 501.006 2673.29 500.913C2673.18 500.913 2673.19 501.075 2673.29 501.085Z" fill="#165D5C"/>
<path d="M2687.63 484.366C2688.39 479.801 2688.7 475.161 2689.42 470.585C2690.15 466.005 2691.39 461.49 2692.06 456.918C2692.11 456.636 2691.72 456.512 2691.63 456.798C2690.21 461.297 2689.61 466.274 2688.9 470.937C2688.23 475.352 2687.49 479.877 2687.48 484.347C2687.48 484.43 2687.61 484.455 2687.63 484.366Z" fill="#165D5C"/>
<path d="M2647.42 529.207C2645.49 529.362 2644.88 512.6 2644.8 510.754C2644.56 504.92 2644.69 499.099 2645.01 493.272C2645.03 492.934 2644.51 492.938 2644.48 493.272C2643.95 500.861 2644.04 508.506 2644.64 516.089C2644.76 517.718 2645.05 529.89 2647.45 529.369C2647.53 529.349 2647.52 529.2 2647.42 529.207Z" fill="#165D5C"/>
<path d="M2766.61 510.395C2750.76 530.808 2732.87 549.14 2713.47 566.185C2693.59 583.649 2672.72 600.002 2651.88 616.292C2639.07 626.306 2626.17 636.213 2613.2 646.017C2612.96 646.197 2613.19 646.604 2613.44 646.422C2635.95 629.392 2658.23 612.055 2680.25 594.388C2700.47 578.163 2720.46 561.549 2738.66 543.045C2748.69 532.844 2758.34 522.099 2766.74 510.494C2766.79 510.42 2766.66 510.322 2766.61 510.395Z" fill="#165D5C"/>
<path d="M2657.26 612.714C2671 611.498 2685.47 613.446 2698.92 609.928C2699.25 609.844 2699.11 609.361 2698.79 609.431C2691.65 610.982 2684.51 611.399 2677.23 611.489C2670.58 611.572 2663.82 611.462 2657.24 612.584C2657.16 612.596 2657.18 612.721 2657.26 612.714Z" fill="#165D5C"/>
<path d="M2710.68 568.279C2723.72 568.598 2736.98 567.266 2749.9 565.583C2750.25 565.537 2750.25 564.981 2749.9 565.028C2736.84 566.778 2723.82 567.34 2710.68 567.997C2710.5 568.007 2710.5 568.275 2710.68 568.279Z" fill="#165D5C"/>
<path d="M2722.17 517.279C2720.29 524.058 2719.49 531.222 2719.39 538.245C2719.28 545.522 2720.57 552.794 2719.87 560.059C2719.84 560.369 2720.32 560.367 2720.35 560.059C2721.01 553.107 2719.8 546.164 2719.81 539.207C2719.82 531.798 2720.91 524.581 2722.4 517.342C2722.43 517.195 2722.21 517.133 2722.17 517.279Z" fill="#165D5C"/>
<path d="M2671.32 555.467C2669.94 558.394 2669.7 561.545 2669.56 564.733C2669.38 568.921 2669.36 573.118 2669.46 577.308C2669.65 585.346 2670.13 593.517 2671.49 601.452C2671.53 601.684 2671.93 601.633 2671.9 601.396C2671.03 593.687 2670.14 586.04 2669.89 578.275C2669.77 574.407 2669.76 570.535 2669.85 566.667C2669.94 562.864 2670.08 559.117 2671.44 555.521C2671.47 555.448 2671.35 555.395 2671.32 555.467Z" fill="#165D5C"/>
<path d="M2626.34 692.261C2670.27 674.964 2713.75 656.465 2757.02 637.581C2769.33 632.206 2781.67 626.867 2793.9 621.284C2794.18 621.154 2793.93 620.743 2793.65 620.866C2750.25 639.805 2706.92 658.844 2663.13 676.905C2650.86 681.969 2638.55 686.957 2626.27 692.006C2626.11 692.069 2626.18 692.324 2626.34 692.261Z" fill="#165D5C"/>
<path d="M2749.77 607.925C2747.95 609.494 2747.01 611.782 2746.21 613.994C2745 617.319 2744.02 620.74 2743.03 624.135C2741.07 630.925 2738.96 637.956 2737.97 644.966C2737.94 645.173 2738.24 645.27 2738.29 645.055C2740.02 638.618 2741.23 632.048 2743.04 625.619C2744.72 619.619 2746.12 613.076 2749.84 607.981C2749.87 607.936 2749.8 607.892 2749.77 607.925Z" fill="#165D5C"/>
<path d="M2689.89 631.274C2686.05 636.302 2684.82 643.141 2683.06 649.08C2680.94 656.219 2678.49 663.344 2676.72 670.578C2676.65 670.864 2677.06 670.973 2677.16 670.698C2679.48 663.964 2681.19 656.966 2683.18 650.125C2685.03 643.758 2686.43 637.013 2690.02 631.349C2690.07 631.266 2689.95 631.2 2689.89 631.274Z" fill="#165D5C"/>
<path d="M2686.11 669.893C2686.09 669.826 2686.07 669.76 2686.05 669.693C2686.04 669.681 2686.03 669.666 2686.02 669.664C2685.66 669.612 2685.75 669.576 2685.48 669.829C2685.45 669.855 2685.45 669.897 2685.45 669.933C2685.75 671.049 2687.24 671.578 2688.14 672.124C2689.86 673.155 2691.64 674.063 2693.47 674.88C2697.15 676.531 2701 677.792 2704.9 678.837C2709.09 679.961 2713.35 680.834 2717.61 681.666C2721.67 682.459 2725.77 683.379 2729.92 682.762C2730.16 682.726 2730.1 682.306 2729.86 682.332C2725.59 682.791 2721.48 681.947 2717.3 681.138C2713.75 680.45 2710.2 679.738 2706.69 678.864C2703.34 678.031 2700.01 677.062 2696.78 675.837C2693.46 674.576 2688.21 672.892 2686.09 669.898C2686.1 669.905 2686.11 669.902 2686.11 669.893Z" fill="#165D5C"/>
<path d="M2750.73 640.298C2757.6 641.865 2764.69 642.731 2771.64 643.891C2775.05 644.46 2778.46 645.028 2781.86 645.597C2784.12 645.974 2786.52 646.651 2788.7 645.671C2788.91 645.573 2788.76 645.214 2788.53 645.286C2785.25 646.328 2781.4 645.068 2778.08 644.529C2775 644.027 2771.91 643.526 2768.82 643.024C2762.82 642.049 2756.79 640.814 2750.74 640.192C2750.68 640.184 2750.67 640.284 2750.73 640.298Z" fill="#165D5C"/>
<path d="M2638.11 732.319C2610.94 733.427 2583.76 736.016 2556.76 739.231C2530.35 742.375 2503.78 745.838 2477.83 751.747C2463.83 754.937 2449.31 758.572 2436.61 765.466C2436.34 765.61 2436.58 766.014 2436.84 765.871C2448.41 759.612 2461.48 756.134 2474.2 753.074C2487.02 749.991 2500.01 747.704 2513.03 745.676C2539.56 741.544 2566.23 738.287 2592.97 735.863C2608 734.5 2623.05 733.537 2638.11 732.521C2638.24 732.514 2638.24 732.314 2638.11 732.319Z" fill="#165D5C"/>
<path d="M2460.85 729.076C2469.06 732.066 2477.71 733.805 2486.15 736.037C2494.86 738.34 2503.25 741.192 2511.22 745.44C2511.48 745.577 2511.7 745.196 2511.45 745.049C2503.93 740.681 2495.46 738.092 2487.09 735.894C2478.34 733.595 2469.55 731.558 2460.86 729.032C2460.83 729.022 2460.82 729.065 2460.85 729.076Z" fill="#165D5C"/>
<path d="M2554.89 709.64C2570.72 716.807 2585.98 724.634 2600.35 734.478C2600.62 734.663 2600.87 734.223 2600.61 734.039C2586.4 724.342 2571.06 715.612 2554.93 709.54C2554.87 709.519 2554.83 709.615 2554.89 709.64Z" fill="#165D5C"/>
<path d="M2525.19 743.748C2522.34 751.803 2519.39 759.701 2515.43 767.293C2513.52 770.937 2511.46 774.498 2509.24 777.96C2508.13 779.691 2506.99 781.398 2505.8 783.078C2505.21 783.919 2502.7 788.365 2501.71 788.32C2501.99 788.333 2501.99 787.915 2501.71 787.89C2501.65 787.884 2501.59 787.878 2501.52 787.873C2501.45 787.867 2501.36 787.918 2501.33 787.982C2501.19 788.332 2501.15 788.339 2501.37 788.665C2501.42 788.748 2501.52 788.787 2501.61 788.764C2502.77 788.494 2503.42 787.013 2504.07 786.128C2505.47 784.238 2506.81 782.313 2508.11 780.354C2510.62 776.559 2512.95 772.641 2515.08 768.618C2519.23 760.769 2522.95 752.365 2525.22 743.758C2525.23 743.734 2525.19 743.725 2525.19 743.748Z" fill="#165D5C"/>
<path d="M2585.98 736.703C2584.81 742.002 2583.85 747.282 2582.22 752.475C2580.51 757.93 2578.29 763.147 2575.85 768.311C2575.74 768.54 2576.08 768.743 2576.19 768.512C2581.13 758.861 2585.08 747.557 2586.06 736.713C2586.06 736.669 2585.99 736.66 2585.98 736.703Z" fill="#165D5C"/>
<path d="M2607.89 647.725C2556.28 663.673 2503.76 675.908 2450.2 683.081C2435.03 685.113 2419.8 686.801 2404.54 688.029C2404.22 688.055 2404.22 688.557 2404.54 688.529C2458.33 683.795 2511.63 674.728 2563.83 660.838C2578.64 656.899 2593.37 652.629 2607.92 647.831C2607.98 647.809 2607.95 647.704 2607.89 647.725Z" fill="#165D5C"/>
<path d="M2443.08 656.029C2455.43 661.393 2467.93 668.763 2476.74 679.155C2477 679.456 2477.47 678.994 2477.18 678.719C2472.11 673.964 2467.19 669.323 2461.4 665.419C2455.71 661.577 2449.58 658.293 2443.13 655.915C2443.07 655.891 2443.02 656.001 2443.08 656.029Z" fill="#165D5C"/>
<path d="M2496.67 676.218C2490.41 687.542 2484 698.399 2476.1 708.687C2475.94 708.893 2476.3 709.172 2476.46 708.966C2484.29 698.993 2491.62 687.887 2496.72 676.245C2496.73 676.214 2496.69 676.186 2496.67 676.218Z" fill="#165D5C"/>
<path d="M2517.66 637.068C2517.47 639.713 2520.9 640.605 2522.79 641.5C2526.43 643.23 2530 645.109 2533.5 647.116C2540.87 651.349 2547.84 656.217 2554.4 661.624C2554.65 661.834 2555.02 661.47 2554.77 661.259C2549.32 656.786 2543.6 652.673 2537.59 648.993C2534.53 647.121 2531.41 645.351 2528.22 643.716C2526.63 642.898 2525.02 642.109 2523.39 641.349C2521.66 640.539 2517.86 639.498 2517.77 637.068C2517.77 636.997 2517.67 636.998 2517.66 637.068Z" fill="#165D5C"/>
<path d="M2569.48 658.409C2568.04 665.656 2566.44 672.212 2562.47 678.586C2562.31 678.851 2562.73 679.096 2562.89 678.831C2566.55 672.887 2569.61 665.516 2569.61 658.427C2569.61 658.354 2569.49 658.334 2569.48 658.409Z" fill="#165D5C"/>
<path d="M2592.32 600.048C2567.55 601.985 2542.82 601.798 2518.04 599.937C2493.52 598.095 2469.12 594.949 2444.73 591.912C2430.74 590.171 2416.75 588.419 2402.72 587.071C2402.36 587.036 2402.36 587.596 2402.72 587.633C2451.84 592.76 2500.82 601.242 2550.3 601.973C2564.31 602.18 2578.39 601.815 2592.32 600.266C2592.46 600.252 2592.46 600.037 2592.32 600.048Z" fill="#165D5C"/>
<path d="M2443.97 570.242C2447.39 573.996 2451.2 577.43 2454.73 581.094C2456.5 582.929 2458.25 584.783 2459.98 586.655C2461.63 588.443 2465.66 591.684 2465.63 594.286C2465.63 594.619 2466.13 594.617 2466.15 594.286C2466.23 592.223 2464.53 590.889 2463.23 589.47C2461.19 587.24 2459.12 585.035 2457.02 582.856C2452.86 578.533 2448.68 573.987 2444.04 570.17C2443.99 570.129 2443.92 570.193 2443.97 570.242Z" fill="#165D5C"/>
<path d="M2482.21 596.734C2470.7 607.993 2457.51 616.917 2444.59 626.405C2444.38 626.565 2444.58 626.933 2444.81 626.776C2458.04 617.904 2471.14 608.231 2482.3 596.828C2482.36 596.767 2482.27 596.675 2482.21 596.734Z" fill="#165D5C"/>
<path d="M2519.8 577.37C2521.44 581.371 2523.77 585.185 2525.87 588.958C2528.13 593.01 2530.31 597.262 2532.98 601.064C2533.1 601.248 2533.39 601.09 2533.28 600.887C2531.19 596.9 2528.66 593.11 2526.43 589.191C2524.21 585.281 2522.27 581.134 2519.85 577.35C2519.83 577.324 2519.79 577.34 2519.8 577.37Z" fill="#165D5C"/>
<path d="M2551.36 601.421C2546.69 609.645 2541.19 616.634 2533.88 622.672C2533.69 622.828 2533.95 623.167 2534.14 623.016C2541.37 617.475 2547.78 609.858 2551.51 601.512C2551.56 601.408 2551.42 601.318 2551.36 601.421Z" fill="#165D5C"/>
<path d="M2573.58 555.178C2547.2 553.018 2520.9 550.871 2494.69 547.063C2468.82 543.306 2443.11 538.44 2417.66 532.469C2403.61 529.172 2389.2 526.064 2376.09 519.873C2375.76 519.717 2375.47 520.209 2375.8 520.365C2387.1 525.695 2399.3 528.629 2411.39 531.553C2424.41 534.702 2437.49 537.562 2450.64 540.129C2476.32 545.144 2502.21 549.038 2528.23 551.804C2543.29 553.405 2558.44 554.828 2573.58 555.303C2573.66 555.306 2573.66 555.185 2573.58 555.178Z" fill="#165D5C"/>
<path d="M2412.91 504.557C2413.08 506.454 2414.22 507.929 2415.18 509.528C2416.59 511.883 2417.92 514.288 2419.17 516.733C2421.8 521.884 2424.01 527.226 2425.87 532.704C2425.96 532.974 2426.39 532.858 2426.29 532.586C2424.66 527.804 2422.75 523.125 2420.52 518.587C2419.37 516.259 2418.15 513.972 2416.85 511.73C2415.53 509.475 2413.48 507.15 2413.04 504.539C2413.03 504.466 2412.9 504.482 2412.91 504.557Z" fill="#165D5C"/>
<path d="M2442.43 538.307C2438.97 542.131 2435.73 546.048 2431.92 549.545C2427.9 553.227 2423.54 556.321 2419.1 559.45C2418.9 559.592 2419.08 559.918 2419.3 559.787C2423.82 557.109 2428.02 553.659 2431.87 550.106C2435.71 546.567 2439.56 542.693 2442.47 538.34C2442.49 538.314 2442.45 538.284 2442.43 538.307Z" fill="#165D5C"/>
<path d="M2474.86 513.79C2477.11 519.43 2480.58 524.589 2483.66 529.797C2487.05 535.531 2489.9 541.305 2491.92 547.662C2492 547.911 2492.38 547.809 2492.32 547.554C2490.88 541.55 2487.77 535.961 2484.67 530.68C2481.37 525.056 2478.07 519.487 2475 513.73C2474.96 513.654 2474.83 513.707 2474.86 513.79Z" fill="#165D5C"/>
<path d="M2517.08 551.563C2514.41 554.154 2511.75 556.728 2508.89 559.099C2505.79 561.656 2502.45 563.789 2499.22 566.146C2499.04 566.28 2499.19 566.57 2499.4 566.456C2505.99 562.852 2512.29 557.331 2517.23 551.711C2517.31 551.611 2517.17 551.468 2517.08 551.563Z" fill="#165D5C"/>
<path d="M2091.13 510.741C2138.5 555.863 2184.13 602.812 2227.42 651.874C2270.57 700.793 2311.39 751.788 2349.32 804.872C2370.87 835.04 2391.48 865.877 2411.11 897.327C2412.13 898.961 2414.73 897.457 2413.7 895.813C2379.17 840.501 2341.58 787.136 2301.3 735.859C2260.72 684.203 2217.45 634.687 2172.07 587.203C2146.43 560.379 2120.12 534.212 2093.25 508.62C2091.85 507.288 2089.73 509.406 2091.13 510.741Z" fill="#228787"/>
<path d="M2123.38 541.049C2115.23 523.441 2110.18 504.401 2108.53 485.066C2108.09 479.868 2107.89 474.607 2108.72 469.456C2109.59 464.007 2112.74 457.844 2118.25 457.496C2123.83 457.143 2127.71 462.963 2129.44 468.279C2132.54 477.813 2132.76 488.019 2132.68 498.044C2132.54 513.851 2131.71 529.653 2130.19 545.388" fill="#238787"/>
<path d="M2156.78 574.854C2151.28 553.347 2148.62 531.117 2148.89 508.921C2148.96 502.894 2149.25 496.818 2150.75 490.98C2151.79 486.94 2153.39 483.047 2155.51 479.454C2157.35 476.33 2160.52 473.073 2164.02 474.012C2165.26 474.345 2166.31 475.178 2167.23 476.075C2171.67 480.403 2173.99 486.557 2174.74 492.715C2175.5 498.874 2174.83 505.11 2174.07 511.268C2171.25 534.001 2167.18 556.578 2161.89 578.865" fill="#238787"/>
<path d="M2181.04 598.325C2178.31 575.759 2179.48 552.104 2189.09 531.506C2192.4 524.426 2196.93 517.535 2203.72 513.682C2205.08 512.911 2206.62 512.257 2208.16 512.465C2211.25 512.88 2212.85 516.346 2213.5 519.392C2215.86 530.487 2213.02 542.007 2209.35 552.741C2203.5 569.874 2195.49 586.271 2185.58 601.425" fill="#238787"/>
<path d="M2207.03 625.918C2206.08 612.946 2206.13 599.804 2208.72 587.056C2211.3 574.308 2216.52 561.919 2225.02 552.07C2227.68 548.985 2230.76 546.09 2234.58 544.667C2238.39 543.244 2243.08 543.576 2246.05 546.366C2248.14 548.332 2249.13 551.215 2249.58 554.05C2250.86 562.135 2248.42 570.341 2245.36 577.932C2241.26 588.077 2236.01 597.71 2230.77 607.316C2225.66 616.699 2220.26 626.414 2211.54 632.592" fill="#238787"/>
<path d="M2239 664.379C2239.62 647.777 2242.45 631.259 2247.39 615.398C2250.86 604.245 2255.49 593.243 2262.92 584.227C2265.2 581.458 2267.82 578.829 2271.13 577.441C2274.44 576.053 2278.57 576.138 2281.32 578.438C2283.76 580.474 2284.7 583.783 2285.14 586.929C2286.99 600.052 2282.36 613.22 2276.58 625.145C2268.71 641.387 2258.39 656.695 2244.63 668.375" fill="#238787"/>
<path d="M2267.3 696.193C2269.47 675.35 2275.25 654.887 2284.3 635.987C2288.37 627.482 2293.22 619.139 2300.25 612.854C2302.72 610.645 2305.52 608.675 2308.73 607.85C2311.94 607.025 2315.63 607.512 2318.08 609.737C2321.76 613.063 2321.58 618.827 2320.7 623.704C2316.94 644.718 2305.8 663.612 2294.16 681.504C2288.6 690.032 2282.74 698.613 2274.65 704.788" fill="#238787"/>
<path d="M2294.15 728.5C2297.8 704.067 2306.03 680.327 2318.29 658.881C2323.63 649.541 2329.9 640.457 2338.52 634.029C2342.4 631.143 2347.87 628.855 2351.85 631.589C2353.68 632.846 2354.76 634.933 2355.5 637.029C2357.86 643.78 2357.31 651.281 2355.27 658.137C2353.23 664.993 2349.78 671.333 2346.33 677.603C2333.65 700.707 2320.45 723.993 2301.74 742.562" fill="#238787"/>
<path d="M2315.18 759.319C2322.57 732.442 2334.73 706.883 2350.91 684.192C2358.43 673.655 2367.21 663.421 2378.94 657.958C2382.49 656.307 2386.66 655.135 2390.25 656.697C2393.87 658.274 2395.91 662.341 2396.15 666.284C2396.39 670.226 2395.15 674.097 2393.8 677.81C2380.56 714.293 2355.53 746.391 2323.37 768.115" fill="#238787"/>
<path d="M2335.18 783.781C2351.41 756.931 2370.96 730.707 2398.47 715.632C2402.49 713.433 2406.72 711.464 2411.26 710.848C2415.8 710.232 2420.71 711.122 2424.18 714.102C2428.81 718.068 2429.98 725.007 2428.47 730.909C2426.96 736.811 2423.21 741.872 2419.26 746.508C2399.59 769.561 2372.46 786.138 2342.97 793.114" fill="#238787"/>
<path d="M2348.51 808.557C2340.82 807.033 2332.88 807.36 2325.09 808.201C2311.41 809.677 2297.9 812.722 2284.91 817.256C2265.82 823.918 2246.84 834.836 2237.65 852.847C2235.15 857.752 2233.53 863.893 2236.41 868.584C2237.76 870.769 2239.93 872.336 2242.26 873.42C2249.69 876.883 2258.42 875.733 2266.35 873.669C2300.49 864.787 2328.66 840.984 2353.45 815.889" fill="#238787"/>
<path d="M2316.88 764.204C2296.04 767.982 2275.05 771.805 2255.35 779.594C2235.66 787.383 2217.12 799.504 2205.12 816.956C2203.78 818.911 2202.48 821.054 2202.41 823.426C2202.31 826.832 2204.8 829.822 2207.66 831.668C2212.31 834.662 2218.1 835.493 2223.6 834.914C2229.09 834.335 2234.36 832.443 2239.47 830.334C2270.64 817.466 2297.83 796.004 2319.94 770.546" fill="#238787"/>
<path d="M2298.89 739.307C2270.54 736.872 2241.76 739.439 2214.29 746.854C2204.61 749.468 2194.71 752.902 2187.61 759.984C2186.21 761.374 2184.92 762.942 2184.31 764.815C2183 768.866 2185.28 773.294 2188.4 776.189C2193.15 780.6 2199.78 782.589 2206.26 782.806C2212.74 783.023 2219.17 781.618 2225.45 779.988C2252.69 772.916 2278.79 761.432 2302.41 746.119" fill="#238787"/>
<path d="M2282.1 716.602C2252.7 709.381 2221.92 707.827 2191.94 712.05C2179.77 713.765 2167.04 716.776 2158.21 725.331C2156.96 726.544 2155.77 727.91 2155.24 729.572C2154.18 732.946 2156.12 736.564 2158.57 739.112C2163.31 744.025 2170.04 746.656 2176.81 747.504C2183.58 748.352 2190.45 747.555 2197.18 746.455C2226.47 741.674 2254.5 731.241 2282.3 720.867" fill="#238787"/>
<path d="M2243.12 670.622C2234.97 668.642 2226.44 669.422 2218.06 669.925C2200.88 670.957 2183.58 670.78 2166.6 673.541C2157.48 675.023 2148.03 677.603 2141.47 684.103C2139.92 685.641 2138.52 687.468 2138.12 689.617C2137.79 691.429 2138.22 693.316 2139 694.982C2141.04 699.296 2145.38 702.198 2149.99 703.447C2154.59 704.697 2159.46 704.483 2164.2 703.927C2193 700.547 2218.8 685.208 2246.06 675.324" fill="#238787"/>
<path d="M2208.79 630.285C2186.95 627.726 2165.04 633.07 2143.7 638.373C2137.07 640.019 2130.33 641.71 2124.47 645.201C2121.88 646.742 2119.31 648.889 2118.76 651.851C2118.11 655.313 2120.49 658.701 2123.39 660.697C2128.81 664.427 2135.88 664.687 2142.44 664.128C2151.36 663.367 2160.15 661.336 2168.64 658.454C2184.18 653.172 2198.74 645.002 2211.35 634.485" fill="#238787"/>
<path d="M2181.44 599.698C2168.6 599.933 2155.76 600.926 2143.03 602.671C2128.63 604.646 2114.05 607.694 2101.49 615.022C2098.69 616.657 2095.7 619.026 2095.69 622.271C2095.69 624.029 2096.6 625.664 2097.69 627.042C2102.16 632.676 2109.78 635.103 2116.96 634.814C2124.14 634.525 2131.01 631.87 2137.55 628.886C2153.46 621.629 2168.38 612.208 2181.77 600.965" fill="#238787"/>
<path d="M2160.06 577.689C2137.21 572.178 2113.45 570.48 2090.05 572.685C2085.26 573.137 2080.37 573.785 2076.09 575.993C2073.51 577.328 2071.09 579.379 2070.25 582.164C2068.64 587.485 2073.29 592.695 2078.19 595.325C2084.79 598.867 2092.4 600.117 2099.89 600.266C2121.66 600.699 2142.79 592.24 2161.27 580.711" fill="#238787"/>
<path d="M2127.12 542.796C2104.98 535.561 2081.68 528.331 2058.77 532.52C2052.26 533.71 2045.4 536.2 2041.86 541.796C2041.23 542.788 2040.72 543.901 2040.71 545.075C2040.71 546.415 2041.37 547.665 2042.11 548.78C2045.99 554.602 2052.47 558.316 2059.23 560.112C2065.99 561.908 2073.08 561.967 2080.07 561.773C2097.91 561.277 2116.76 558.783 2130.71 547.651" fill="#238787"/>
<path d="M2099.46 514.72C2089.88 499.164 2079.81 483.886 2068.6 469.461C2058.16 456.027 2046.12 442.905 2030.27 436.739C2026.8 435.389 2023.11 434.386 2019.39 434.593C2015.67 434.8 2011.89 436.357 2009.66 439.335C2006.04 444.143 2007.32 451.021 2009.74 456.524C2016.77 472.443 2031.49 483.685 2046.91 491.734C2062.34 499.783 2079 505.352 2094.11 513.97" fill="#238787"/>
<path d="M2012.32 434.983C2030.76 458.204 2050.47 480.943 2074.42 498.675C2081.28 503.754 2088.47 508.431 2096.01 512.435C2096.25 512.56 2096.45 512.206 2096.22 512.078C2069.9 497.635 2048.23 476.951 2028.68 454.404C2023.13 448.004 2017.75 441.463 2012.43 434.878C2012.37 434.804 2012.26 434.909 2012.32 434.983Z" fill="#165D5C"/>
<path d="M2072.11 496.373C2070.74 491.714 2069.12 487.172 2068.04 482.425C2066.96 477.676 2066.45 472.89 2065.69 468.092C2065.67 467.952 2065.44 467.986 2065.45 468.125C2065.58 472.938 2066.57 477.855 2067.67 482.529C2068.76 487.211 2070.04 492.016 2072.07 496.388C2072.08 496.408 2072.11 496.394 2072.11 496.373Z" fill="#165D5C"/>
<path d="M2045.55 472.456C2043.29 462.418 2042.1 452.791 2043.14 442.502C2043.16 442.221 2042.73 442.226 2042.7 442.502C2041.56 452.346 2042.15 463.07 2045.49 472.473C2045.5 472.51 2045.56 472.495 2045.55 472.456Z" fill="#165D5C"/>
<path d="M2014.43 465.943C2017.45 463.525 2021.28 463.849 2024.94 463.813C2028.74 463.776 2032.56 463.798 2036.36 463.695C2036.62 463.688 2036.62 463.298 2036.36 463.297C2031.61 463.274 2026.84 463.373 2022.08 463.472C2019.35 463.529 2016.25 463.627 2014.36 465.871C2014.31 465.922 2014.38 465.984 2014.43 465.943Z" fill="#165D5C"/>
<path d="M2040.06 488.425C2042.83 487.25 2045.55 486.059 2048.43 485.199C2050.84 484.481 2054.52 483.039 2056.94 483.965C2057.19 484.062 2057.38 483.632 2057.13 483.522C2054.9 482.554 2051.8 483.809 2049.62 484.426C2046.3 485.368 2043.01 486.608 2040.03 488.364C2039.99 488.388 2040.02 488.442 2040.06 488.425Z" fill="#165D5C"/>
<path d="M2116.86 457.802C2117.16 464.572 2118.21 471.365 2118.78 478.121C2119.37 485.052 2119.86 491.99 2120.27 498.933C2121.04 512.159 2121.69 525.432 2124.35 538.444C2124.41 538.754 2124.89 538.623 2124.83 538.313C2122.07 524.868 2121.5 511.159 2120.65 497.5C2120.24 490.873 2119.74 484.251 2119.15 477.636C2118.57 471.053 2118.24 464.281 2117.05 457.776C2117.03 457.673 2116.86 457.697 2116.86 457.802Z" fill="#165D5C"/>
<path d="M2122.89 524.19C2124.69 522.399 2126.14 520.036 2127.78 518.024C2129.57 515.826 2131.46 513.735 2133.39 511.66C2133.6 511.436 2133.27 511.103 2133.06 511.323C2129.18 515.29 2125.2 519.77 2122.46 524.62C2122.4 524.735 2122.58 524.839 2122.64 524.723C2122.73 524.55 2122.82 524.377 2122.91 524.204C2122.91 524.193 2122.9 524.181 2122.89 524.19Z" fill="#165D5C"/>
<path d="M2119.64 488.804C2122.86 482.541 2126.47 476.56 2130.3 470.653C2130.46 470.409 2130.08 470.197 2129.91 470.428C2125.87 476.165 2122.46 482.378 2119.57 488.764C2119.55 488.81 2119.62 488.85 2119.64 488.804Z" fill="#165D5C"/>
<path d="M2108.13 475.267C2108.73 478.633 2111.14 481.788 2112.98 484.574C2115.06 487.725 2117.32 490.77 2119.78 493.643C2119.98 493.877 2120.31 493.539 2120.12 493.306C2115.62 487.964 2110.58 481.909 2108.19 475.25C2108.18 475.213 2108.13 475.228 2108.13 475.267Z" fill="#165D5C"/>
<path d="M2111.58 504.739C2111.54 507.01 2113.56 509.116 2114.87 510.811C2116.77 513.271 2118.9 515.519 2121.19 517.616C2121.42 517.823 2121.76 517.485 2121.53 517.279C2119.75 515.675 2118.07 513.984 2116.51 512.17C2114.84 510.224 2111.98 507.427 2111.68 504.739C2111.67 504.681 2111.59 504.678 2111.58 504.739Z" fill="#165D5C"/>
<path d="M2163.57 473.229C2162.18 481.218 2161.65 489.439 2160.85 497.504C2160.01 505.954 2159.22 514.409 2158.56 522.875C2157.26 539.859 2156.61 556.942 2158.22 573.929C2158.25 574.202 2158.67 574.205 2158.65 573.929C2157.1 557.096 2157.67 540.197 2158.95 523.366C2159.58 515.061 2160.34 506.765 2161.14 498.475C2161.95 490.084 2163.2 481.654 2163.64 473.238C2163.64 473.199 2163.58 473.19 2163.57 473.229Z" fill="#165D5C"/>
<path d="M2157.57 551.258C2161.6 547.459 2165.49 543.507 2169.42 539.593C2169.65 539.358 2169.29 538.992 2169.05 539.228C2165.16 543.177 2161.24 547.093 2157.46 551.152C2157.4 551.223 2157.5 551.324 2157.57 551.258Z" fill="#165D5C"/>
<path d="M2159.39 512.897C2165.24 508.566 2170.44 503.054 2175.81 498.138C2176.08 497.89 2175.67 497.486 2175.4 497.735C2170.06 502.653 2164.13 507.364 2159.33 512.818C2159.29 512.858 2159.34 512.933 2159.39 512.897Z" fill="#165D5C"/>
<path d="M2150.86 489.512C2151.35 492.438 2153.46 495.347 2154.95 497.855C2156.62 500.678 2158.38 503.501 2160.42 506.081C2160.58 506.289 2160.93 506.017 2160.78 505.797C2157.26 500.507 2153.59 495.292 2150.95 489.475C2150.92 489.424 2150.85 489.464 2150.86 489.512Z" fill="#165D5C"/>
<path d="M2149.64 522.348C2149.25 524.853 2151.51 527.507 2152.81 529.455C2153.63 530.686 2154.49 531.885 2155.4 533.055C2156.11 533.976 2157.14 535.775 2158.25 536.254C2158.44 536.335 2158.68 536.201 2158.62 535.972C2158.61 535.933 2158.6 535.893 2158.59 535.854C2158.55 535.723 2158.4 535.66 2158.28 535.728C2158.25 535.741 2158.23 535.754 2158.21 535.767C2158.1 535.831 2158.11 535.977 2158.21 536.044C2157.96 535.42 2157.6 534.874 2157.12 534.408C2156.75 533.962 2156.38 533.511 2156.01 533.055C2155.12 531.93 2154.26 530.773 2153.45 529.588C2152.03 527.514 2149.94 524.946 2149.73 522.361C2149.72 522.315 2149.65 522.297 2149.64 522.348Z" fill="#165D5C"/>
<path d="M2129.2 546.335C2122.54 543.884 2115.29 542.988 2108.27 542.201C2100.57 541.337 2092.84 540.771 2085.1 540.469C2070.39 539.894 2055.42 539.915 2041.15 543.964C2040.8 544.064 2040.95 544.618 2041.3 544.514C2055.46 540.363 2070.48 540.445 2085.1 541.007C2099.98 541.58 2114.65 543.076 2129.16 546.494C2129.26 546.518 2129.3 546.371 2129.2 546.335Z" fill="#165D5C"/>
<path d="M2055.99 533.091C2057.88 536.053 2060.3 538.835 2062.56 541.527C2062.71 541.712 2063.04 541.46 2062.89 541.267C2060.74 538.484 2058.54 535.526 2056.05 533.039C2056.02 533.005 2055.96 533.049 2055.99 533.091Z" fill="#165D5C"/>
<path d="M2053.37 558.063C2057.29 552.574 2060.52 546.501 2064 540.732C2064.18 540.443 2063.73 540.179 2063.55 540.468C2060.09 546.246 2056.24 551.95 2053.23 557.976C2053.18 558.076 2053.31 558.152 2053.37 558.063Z" fill="#165D5C"/>
<path d="M2082.4 531.611C2083.91 533.003 2085.61 534.129 2087.05 535.62C2088.6 537.226 2089.97 539.017 2091.06 540.963C2091.21 541.226 2091.63 540.981 2091.47 540.726C2089.26 537.273 2086.27 533.314 2082.43 531.574C2082.41 531.564 2082.38 531.591 2082.4 531.611Z" fill="#165D5C"/>
<path d="M2091.82 540.717C2088.55 546.685 2085.49 552.935 2082.64 559.113C2082.55 559.31 2082.83 559.483 2082.94 559.286C2086.25 553.375 2089.35 547.031 2091.85 540.729C2091.85 540.712 2091.83 540.702 2091.82 540.717Z" fill="#165D5C"/>
<path d="M2114.15 543.363C2112.84 545.103 2112.66 547.78 2111.88 549.809C2110.77 552.694 2109.26 555.257 2107.67 557.896C2107.58 558.051 2107.81 558.171 2107.91 558.034C2109.48 555.938 2110.7 553.546 2111.69 551.132C2112.74 548.615 2113.11 545.86 2114.18 543.379C2114.18 543.36 2114.16 543.347 2114.15 543.363Z" fill="#165D5C"/>
<path d="M2113.71 542.643C2113.24 542.593 2112.83 541.696 2112.59 541.351C2112.28 540.887 2111.95 540.428 2111.63 539.967C2111.08 539.181 2110.55 538.384 2109.95 537.64C2109.78 537.435 2109.45 537.699 2109.59 537.919C2110.33 539.141 2111.22 540.292 2112.06 541.447C2112.44 541.97 2112.94 543.101 2113.74 542.819C2113.83 542.785 2113.81 542.654 2113.71 542.643Z" fill="#165D5C"/>
<path d="M2160.31 578.856C2152.82 579.438 2145.36 580.83 2137.89 581.631C2130.39 582.433 2122.88 583.067 2115.35 583.538C2100.3 584.48 2085.21 584.716 2070.14 584.293C2069.75 584.282 2069.75 584.876 2070.14 584.887C2085.37 585.311 2100.63 585.059 2115.84 584.088C2123.37 583.608 2130.88 582.948 2138.38 582.114C2145.65 581.304 2153.19 580.688 2160.33 579.025C2160.43 579.004 2160.41 578.849 2160.31 578.856Z" fill="#165D5C"/>
<path d="M2085.73 572.844C2085.73 573.488 2085.98 573.53 2086.48 573.955C2088.02 575.246 2089.8 576.346 2091.47 577.474C2094.83 579.755 2098.26 581.941 2101.73 584.052C2102.01 584.222 2102.27 583.782 2101.99 583.614C2099.31 582.007 2096.65 580.36 2094.02 578.667C2092.84 577.905 2091.67 577.13 2090.5 576.352C2089.47 575.666 2086.1 574.01 2085.81 572.835C2085.8 572.79 2085.73 572.8 2085.73 572.844Z" fill="#165D5C"/>
<path d="M2091.75 599.994C2094.52 598.215 2096.81 595.686 2099.01 593.273C2101.64 590.407 2104.24 587.514 2106.8 584.59C2107.02 584.346 2106.67 583.987 2106.44 584.231C2101.59 589.577 2096.88 594.895 2091.7 599.926C2091.67 599.96 2091.71 600.021 2091.75 599.994Z" fill="#165D5C"/>
<path d="M2117.61 572.321C2122.05 575.971 2127.24 578.909 2132.02 582.096C2132.29 582.278 2132.55 581.837 2132.27 581.658C2127.49 578.508 2122.76 574.878 2117.68 572.224C2117.62 572.192 2117.55 572.274 2117.61 572.321Z" fill="#165D5C"/>
<path d="M2140.45 581.234C2135.33 586.447 2130.73 592.226 2125.99 597.778C2125.8 597.999 2126.12 598.321 2126.31 598.098C2131.05 592.516 2136.06 587.095 2140.51 581.281C2140.54 581.246 2140.48 581.203 2140.45 581.234Z" fill="#165D5C"/>
<path d="M2208.34 512.071C2202.23 526.01 2197.67 540.856 2193.51 555.477C2189.27 570.419 2185.41 585.713 2183.1 601.087C2183.06 601.344 2183.45 601.463 2183.5 601.197C2186.55 586.028 2189.59 570.952 2193.78 556.042C2197.98 541.128 2203.36 526.73 2208.5 512.136C2208.53 512.047 2208.38 511.981 2208.34 512.071Z" fill="#165D5C"/>
<path d="M2187.58 579.852C2192.98 577.453 2197.96 573.314 2202.45 569.527C2202.71 569.304 2202.33 568.92 2202.07 569.146C2197.46 573.105 2192.34 576.12 2187.51 579.737C2187.44 579.788 2187.5 579.887 2187.58 579.852Z" fill="#165D5C"/>
<path d="M2190.4 567.69C2189.53 564.721 2187.51 562.285 2186.12 559.556C2184.43 556.221 2183.65 552.783 2183.03 549.128C2182.99 548.908 2182.62 548.958 2182.64 549.181C2183.09 556.346 2187.26 561.553 2190.31 567.726C2190.34 567.774 2190.41 567.741 2190.4 567.69Z" fill="#165D5C"/>
<path d="M2192.72 525.328C2193.59 530.042 2195.5 535.18 2198.06 539.253C2198.17 539.431 2198.42 539.276 2198.33 539.091C2196.26 534.515 2194.42 530.065 2192.83 525.296C2192.81 525.224 2192.71 525.254 2192.72 525.328Z" fill="#165D5C"/>
<path d="M2197.3 544.4C2199.85 543.907 2202.12 542.521 2204.39 541.315C2207.31 539.77 2210.24 538.251 2213.11 536.64C2213.37 536.494 2213.14 536.106 2212.88 536.242C2207.73 538.905 2202.75 542.341 2197.26 544.249C2197.16 544.282 2197.2 544.419 2197.3 544.4Z" fill="#165D5C"/>
<path d="M2243.42 543.985C2236.89 557.516 2231.23 571.527 2225.49 585.408C2222.62 592.356 2219.8 599.324 2217.02 606.311C2214.24 613.313 2210.76 620.451 2209.31 627.876C2209.25 628.171 2209.71 628.297 2209.76 628.001C2211.15 620.882 2214.45 614.06 2217.1 607.345C2219.93 600.204 2222.81 593.082 2225.73 585.978C2231.5 571.929 2237.77 558.079 2243.47 544.006C2243.48 543.978 2243.43 543.958 2243.42 543.985Z" fill="#165D5C"/>
<path d="M2215.41 609.821C2215.39 609.874 2215.37 609.927 2215.35 609.98C2215.34 610.013 2215.36 610.05 2215.39 610.068C2216.02 610.477 2216.66 609.997 2217.31 609.747C2218.94 609.123 2220.55 608.433 2222.15 607.724C2225.88 606.066 2229.59 604.262 2233.1 602.16C2233.36 601.999 2233.13 601.593 2232.85 601.742C2230.08 603.243 2227.34 604.782 2224.5 606.159C2223.23 606.778 2221.95 607.376 2220.65 607.953C2220.53 608.008 2215.51 610.029 2215.51 609.836C2215.51 609.775 2215.43 609.768 2215.41 609.821Z" fill="#165D5C"/>
<path d="M2219.6 600.425C2216.02 593.748 2211.25 586.148 2211.11 578.338C2211.1 578.027 2210.62 578.026 2210.63 578.338C2210.7 582.289 2212.22 586.154 2213.73 589.756C2215.29 593.484 2217.11 597.214 2219.5 600.48C2219.54 600.536 2219.63 600.488 2219.6 600.425Z" fill="#165D5C"/>
<path d="M2222.47 554.426C2223.01 561.796 2225.1 570.25 2229 576.602C2229.08 576.743 2229.34 576.652 2229.28 576.485C2227.88 572.87 2226.19 569.43 2225.05 565.708C2223.92 562.002 2223.19 558.23 2222.51 554.421C2222.5 554.4 2222.47 554.404 2222.47 554.426Z" fill="#165D5C"/>
<path d="M2231.42 571.715C2238.14 569.568 2244.76 565.829 2250.69 562.061C2250.96 561.895 2250.72 561.483 2250.45 561.643C2244.23 565.333 2237.76 568.263 2231.36 571.586C2231.29 571.623 2231.34 571.739 2231.42 571.715Z" fill="#165D5C"/>
<path d="M2209.55 631.228C2202.2 634.495 2195.09 638.24 2187.62 641.268C2180.43 644.18 2173.04 646.592 2165.45 648.173C2150.03 651.382 2134.11 651.465 2118.76 654.985C2118.42 655.062 2118.56 655.562 2118.9 655.497C2134.66 652.427 2150.82 651.897 2166.5 648.469C2181.46 645.201 2196.34 638.929 2209.62 631.349C2209.71 631.303 2209.63 631.192 2209.55 631.228Z" fill="#165D5C"/>
<path d="M2144.75 651.192C2141.55 646.931 2137.1 643.438 2132.43 640.929C2132.13 640.77 2131.87 641.216 2132.16 641.381C2136.93 644.052 2140.85 647.374 2144.66 651.263C2144.7 651.309 2144.79 651.246 2144.75 651.192Z" fill="#165D5C"/>
<path d="M2147.09 663.705C2151.41 660.882 2154.87 655.193 2157.02 650.631C2157.15 650.366 2156.76 650.132 2156.63 650.398C2155.37 652.851 2154.02 655.227 2152.39 657.453C2150.76 659.668 2148.69 661.491 2147.06 663.673C2147.04 663.692 2147.07 663.717 2147.09 663.705Z" fill="#165D5C"/>
<path d="M2167.24 632.493C2172.14 635.868 2176.6 639.309 2180.39 643.945C2180.59 644.186 2180.94 643.841 2180.74 643.602C2177.06 639.158 2172.54 634.926 2167.34 632.317C2167.22 632.259 2167.13 632.419 2167.24 632.493Z" fill="#165D5C"/>
<path d="M2192.89 639.263C2192.64 640.761 2192.85 642.273 2192.55 643.782C2192.21 645.435 2191.48 646.93 2190.7 648.413C2190.55 648.688 2190.97 648.931 2191.12 648.658C2192.62 645.93 2193.93 642.395 2192.97 639.263C2192.96 639.229 2192.9 639.223 2192.89 639.263Z" fill="#165D5C"/>
<path d="M2179.93 600.161C2172.95 601.607 2166.08 604.113 2159.24 606.108C2152.35 608.117 2145.45 610.091 2138.54 612.029C2124.71 615.905 2110.83 619.527 2096.96 623.233C2096.64 623.317 2096.77 623.802 2097.09 623.723C2111.01 620.24 2124.85 616.396 2138.67 612.515C2145.58 610.574 2152.48 608.597 2159.37 606.585C2166.2 604.59 2173.35 602.916 2179.95 600.252C2180.01 600.229 2179.99 600.149 2179.93 600.161Z" fill="#165D5C"/>
<path d="M2105.94 612.745C2107.34 613.589 2108.74 614.431 2110.08 615.359C2111.43 616.286 2112.63 617.412 2113.98 618.315C2114.12 618.41 2114.26 618.205 2114.15 618.088C2112.04 615.756 2108.84 613.922 2106 612.645C2105.93 612.614 2105.87 612.706 2105.94 612.745Z" fill="#165D5C"/>
<path d="M2124.34 615.989C2122.14 622.924 2119.43 629.092 2115.1 634.981C2114.98 635.155 2115.27 635.383 2115.41 635.213C2119.74 629.766 2123.24 622.914 2124.43 616.012C2124.43 615.958 2124.36 615.935 2124.34 615.989Z" fill="#165D5C"/>
<path d="M2143.77 610.727C2143.88 616.259 2143.24 621.334 2141.44 626.577C2141.35 626.829 2141.74 626.921 2141.83 626.685C2143.85 621.746 2144.71 616.001 2143.92 610.707C2143.91 610.623 2143.77 610.644 2143.77 610.727Z" fill="#165D5C"/>
<path d="M2142.46 602.84C2146.77 603.807 2150.16 605.565 2153.88 607.849C2154.03 607.941 2154.2 607.726 2154.07 607.604C2151.08 604.794 2146.51 603.098 2142.48 602.664C2142.38 602.652 2142.36 602.818 2142.46 602.84Z" fill="#165D5C"/>
<path d="M2137.62 691.832C2146.01 693.984 2154.86 693.064 2163.36 692.185C2172.21 691.271 2181.03 690.011 2189.73 688.151C2207.34 684.386 2224.24 677.742 2241.29 672.052C2241.63 671.938 2241.48 671.391 2241.14 671.51C2224.8 677.199 2208.4 683.49 2191.5 687.31C2182.7 689.299 2173.77 690.632 2164.81 691.628C2155.73 692.636 2146.71 693.464 2137.68 691.636C2137.55 691.61 2137.49 691.799 2137.62 691.832Z" fill="#165D5C"/>
<path d="M2243 666.325C2244.96 658.651 2246.51 650.89 2248.62 643.248C2250.77 635.474 2253.19 627.775 2256.01 620.218C2261.66 605.059 2268.94 590.515 2278.32 577.31C2278.49 577.072 2278.1 576.845 2277.93 577.081C2268.7 590.077 2261.52 604.38 2255.91 619.283C2253.07 626.829 2250.61 634.52 2248.47 642.292C2246.3 650.169 2244.15 658.209 2242.83 666.28C2242.82 666.386 2242.97 666.435 2243 666.325Z" fill="#165D5C"/>
<path d="M2259.1 589.862C2258.88 595.523 2259.58 601.244 2260.75 606.777C2260.81 607.047 2261.23 606.933 2261.17 606.663C2259.99 601.098 2259.48 595.532 2259.18 589.862C2259.18 589.812 2259.1 589.812 2259.1 589.862Z" fill="#165D5C"/>
<path d="M2255.89 619.646C2261.03 619.424 2266.23 617.979 2271.06 616.263C2275.27 614.764 2280.49 612.986 2283.82 609.936C2284.04 609.74 2283.73 609.439 2283.51 609.621C2279.73 612.793 2274.29 614.734 2269.69 616.292C2265.16 617.823 2260.54 618.597 2255.88 619.547C2255.82 619.558 2255.83 619.649 2255.89 619.646Z" fill="#165D5C"/>
<path d="M2248.11 644.145C2256.1 642.993 2264.11 639.353 2271.09 635.449C2271.37 635.297 2271.12 634.877 2270.85 635.031C2267.16 637.117 2263.34 638.955 2259.38 640.473C2255.67 641.895 2251.85 642.815 2248.08 644.017C2248 644.044 2248.03 644.157 2248.11 644.145Z" fill="#165D5C"/>
<path d="M2244.1 624.714C2244.72 629.39 2246.95 633.714 2249.91 637.331C2250.1 637.564 2250.44 637.231 2250.25 637C2247.2 633.321 2245.49 629.267 2244.29 624.688C2244.26 624.585 2244.09 624.603 2244.1 624.714Z" fill="#165D5C"/>
<path d="M2213.38 681.669C2209.47 677.029 2203.85 673.521 2198.56 670.69C2198.22 670.512 2197.93 671.025 2198.26 671.196C2203.86 674.049 2208.41 677.898 2213.31 681.747C2213.36 681.789 2213.43 681.724 2213.38 681.669Z" fill="#165D5C"/>
<path d="M2201.14 685.033C2200.28 686.853 2199.62 688.765 2198.75 690.588C2198.04 692.086 2196.84 695.609 2195.1 696.15C2194.88 696.22 2194.97 696.529 2195.2 696.497C2196.93 696.244 2197.7 693.595 2198.39 692.243C2199.52 689.98 2200.69 687.559 2201.25 685.08C2201.27 685.016 2201.17 684.966 2201.14 685.033Z" fill="#165D5C"/>
<path d="M2180.6 689.503C2176.8 682.605 2168.53 677.361 2161.45 674.473C2161.14 674.345 2161 674.85 2161.31 674.978C2165.19 676.606 2168.83 678.658 2172.14 681.254C2175.31 683.732 2177.71 686.75 2180.56 689.531C2180.58 689.55 2180.61 689.526 2180.6 689.503Z" fill="#165D5C"/>
<path d="M2159.62 705.205C2161.78 702.926 2163.62 700.321 2165.33 697.699C2166.62 695.719 2168.93 693.043 2168.61 690.535C2168.58 690.243 2168.12 690.23 2168.14 690.535C2168.38 693.211 2165.69 696.45 2164.25 698.625C2162.77 700.867 2161.11 702.967 2159.54 705.144C2159.51 705.191 2159.58 705.246 2159.62 705.205Z" fill="#165D5C"/>
<path d="M2313.81 607.835C2294.96 636.651 2280.72 668.324 2270.8 701.256C2270.72 701.502 2271.11 701.608 2271.18 701.362C2280.87 668.313 2295.56 636.995 2314.01 607.953C2314.09 607.825 2313.89 607.709 2313.81 607.835Z" fill="#165D5C"/>
<path d="M2277.56 681.542C2286.66 678.425 2295.28 672.975 2302.95 667.261C2303.24 667.047 2302.96 666.557 2302.67 666.775C2294.78 672.733 2286.31 677.035 2277.5 681.399C2277.42 681.438 2277.47 681.57 2277.56 681.542Z" fill="#165D5C"/>
<path d="M2284.79 663.139C2284.33 659.386 2283.5 655.696 2283.1 651.927C2282.71 648.141 2282.65 644.371 2282.57 640.57C2282.56 640.293 2282.15 640.294 2282.14 640.57C2281.83 647.84 2282.4 656.205 2284.72 663.148C2284.73 663.183 2284.79 663.18 2284.79 663.139Z" fill="#165D5C"/>
<path d="M2296.1 617.15C2296.47 621.29 2298.65 625.971 2300.85 629.465C2300.97 629.649 2301.23 629.489 2301.14 629.295C2300.04 627.063 2298.91 624.891 2298.03 622.558C2297.35 620.769 2296.92 618.885 2296.18 617.13C2296.16 617.095 2296.1 617.113 2296.1 617.15Z" fill="#165D5C"/>
<path d="M2297.25 637.139C2305.56 635.438 2313.63 631.217 2320.59 626.494C2320.86 626.311 2320.6 625.871 2320.33 626.056C2313.11 630.991 2305.4 634.078 2297.21 636.996C2297.12 637.027 2297.15 637.158 2297.25 637.139Z" fill="#165D5C"/>
<path d="M2349.23 630.292C2344.58 638.974 2340.52 648.014 2336.25 656.887C2332.11 665.481 2327.98 674.084 2323.88 682.697C2315.54 700.222 2307.27 717.778 2299.06 735.364C2298.93 735.636 2299.34 735.874 2299.47 735.601C2307.67 718.013 2315.94 700.455 2324.28 682.928C2328.38 674.313 2332.48 665.701 2336.6 657.096C2340.86 648.204 2345.41 639.4 2349.35 630.364C2349.39 630.282 2349.27 630.21 2349.23 630.292Z" fill="#165D5C"/>
<path d="M2312.7 706.365C2317.32 705.183 2321.89 702.721 2326.2 700.701C2330.05 698.892 2333.87 697.025 2336.94 694.015C2337.2 693.761 2336.8 693.362 2336.54 693.617C2330.02 700.094 2320.45 701.895 2312.67 706.3C2312.64 706.321 2312.66 706.375 2312.7 706.365Z" fill="#165D5C"/>
<path d="M2331.36 667.325C2340.21 665.75 2348.05 661.571 2355.78 657.228C2356.13 657.036 2355.79 656.486 2355.48 656.708C2348.25 661.869 2339.71 664.631 2331.31 667.159C2331.2 667.191 2331.25 667.344 2331.36 667.325Z" fill="#165D5C"/>
<path d="M2337.03 654.735C2336.71 651.701 2336.05 648.703 2335.67 645.673C2335.33 642.934 2335.28 640.153 2334.9 637.428C2334.86 637.169 2334.46 637.241 2334.45 637.488C2334.41 640.357 2334.89 643.341 2335.27 646.184C2335.66 649.046 2336.03 651.989 2336.88 654.756C2336.9 654.836 2337.04 654.827 2337.03 654.735Z" fill="#165D5C"/>
<path d="M2320.78 688.697C2319.4 688.951 2316.52 679.483 2316.05 678.097C2314.88 674.64 2313.94 671.123 2313.1 667.572C2313.02 667.244 2312.52 667.383 2312.59 667.711C2313.11 670.047 2318.4 689.867 2320.83 688.855C2320.92 688.815 2320.89 688.678 2320.78 688.697Z" fill="#165D5C"/>
<path d="M2388.94 656.421C2382.73 671.712 2375.21 686.101 2366.35 700.026C2357.5 713.944 2347.9 727.389 2338.29 740.791C2332.51 748.847 2326.67 756.856 2320.77 764.82C2320.59 765.062 2321 765.297 2321.18 765.057C2331.59 750.988 2341.81 736.779 2351.81 722.422C2361.13 709.061 2370.24 695.513 2377.93 681.137C2382.18 673.203 2386.17 664.989 2389.09 656.465C2389.13 656.363 2388.97 656.326 2388.94 656.421Z" fill="#165D5C"/>
<path d="M2341.43 737.112C2349.5 734.177 2358.54 732.585 2365.97 728.152C2366.26 727.982 2366 727.549 2365.71 727.707C2357.98 731.88 2349.13 733.008 2341.37 736.991C2341.31 737.024 2341.35 737.138 2341.43 737.112Z" fill="#165D5C"/>
<path d="M2365.65 701.058C2373.56 698.981 2381.29 695.83 2388.77 692.545C2389.1 692.402 2388.82 691.921 2388.49 692.066C2380.99 695.413 2373.3 698.031 2365.57 700.787C2365.4 700.847 2365.47 701.105 2365.65 701.058Z" fill="#165D5C"/>
<path d="M2363.48 668.385C2363.51 672.743 2364.29 677.15 2365.44 681.345C2366.66 685.78 2368.71 689.954 2369.6 694.477C2369.67 694.782 2370.13 694.653 2370.07 694.348C2369.22 690.128 2367.34 686.241 2366.12 682.128C2364.78 677.619 2364.18 673.053 2363.72 668.384C2363.7 668.238 2363.48 668.231 2363.48 668.385Z" fill="#165D5C"/>
<path d="M2339.73 700.258C2339.09 704.667 2341.09 709.53 2342.41 713.668C2343.94 718.482 2345.68 723.314 2347.9 727.86C2348 728.072 2348.38 727.919 2348.29 727.698C2346.45 723.306 2344.59 718.959 2343.09 714.435C2341.61 710 2339.65 705.004 2339.87 700.278C2339.87 700.199 2339.74 700.178 2339.73 700.258Z" fill="#165D5C"/>
<path d="M2338.77 788.667C2353.67 777.184 2368.26 765.287 2382.8 753.362C2397.58 741.245 2412.43 729.151 2426.81 716.554C2427.05 716.347 2426.7 716.015 2426.47 716.211C2411.87 728.312 2397.49 740.675 2382.84 752.709C2368.19 764.741 2353.35 776.528 2338.61 788.457C2338.5 788.552 2338.65 788.759 2338.77 788.667Z" fill="#165D5C"/>
<path d="M2397.9 716.249C2396.02 719.194 2396.65 723.913 2396.66 727.228C2396.68 731.657 2396.68 736.215 2397.32 740.602C2397.35 740.791 2397.65 740.743 2397.65 740.557C2397.55 736.43 2397.13 732.315 2397.08 728.181C2397.03 724.218 2396.79 720.098 2397.99 716.284C2398 716.233 2397.93 716.205 2397.9 716.249Z" fill="#165D5C"/>
<path d="M2366.09 740.819C2364.63 744.534 2365.1 748.873 2365.08 752.776C2365.06 757.411 2364.85 762.095 2365.06 766.726C2365.08 767.017 2365.5 767.018 2365.52 766.726C2365.71 762.414 2365.52 758.055 2365.5 753.738C2365.47 749.423 2365.19 745.081 2366.23 740.858C2366.26 740.764 2366.12 740.731 2366.09 740.819Z" fill="#165D5C"/>
<path d="M2370.66 764.658C2370.61 764.617 2370.57 764.576 2370.52 764.535C2370.5 764.514 2370.47 764.514 2370.44 764.535C2370.38 764.588 2370.32 764.64 2370.26 764.693C2370.22 764.723 2370.22 764.779 2370.24 764.817C2370.9 766.027 2373.97 766.119 2375.16 766.308C2377.9 766.745 2380.69 766.853 2383.46 766.792C2386.39 766.728 2389.32 766.473 2392.25 766.196C2394.65 765.968 2397.02 765.736 2399.25 764.727C2399.47 764.626 2399.31 764.235 2399.08 764.327C2394.72 766.062 2389.49 766.104 2384.85 766.321C2382.55 766.429 2380.23 766.445 2377.94 766.259C2376.43 766.137 2374.94 765.932 2373.46 765.624C2372.56 765.438 2371.34 764.827 2370.65 764.672C2370.66 764.673 2370.67 764.664 2370.66 764.658Z" fill="#165D5C"/>
<path d="M2404.21 735.529C2408.84 735.311 2413.49 734.519 2418.1 733.966C2420.41 733.689 2422.74 733.477 2425.04 733.132C2426.21 732.957 2427.06 732.808 2427.98 732.092C2428.17 731.944 2427.93 731.637 2427.73 731.761C2425.8 732.946 2423.27 732.896 2421.07 733.175C2419.09 733.427 2417.1 733.678 2415.12 733.93C2411.48 734.391 2407.78 734.697 2404.19 735.421C2404.13 735.434 2404.14 735.532 2404.21 735.529Z" fill="#165D5C"/>
<path d="M2351.02 812.178C2334.98 817.475 2319.24 823.873 2303.71 830.51C2288.26 837.116 2272.75 843.947 2258.08 852.174C2250.29 856.542 2242.32 861.262 2235.94 867.58C2235.72 867.793 2236.06 868.123 2236.27 867.911C2242.09 862.176 2249.22 857.799 2256.27 853.737C2263.34 849.662 2270.65 846.027 2278.02 842.543C2293.26 835.343 2308.75 828.653 2324.42 822.447C2333.25 818.948 2342.19 815.735 2351.08 812.374C2351.2 812.328 2351.15 812.136 2351.02 812.178Z" fill="#165D5C"/>
<path d="M2244.12 841.546C2255.23 842.348 2266.15 840.341 2277.2 842.549C2277.48 842.606 2277.61 842.181 2277.32 842.112C2266.6 839.523 2255.02 841.31 2244.12 841.5C2244.09 841.5 2244.09 841.544 2244.12 841.546Z" fill="#165D5C"/>
<path d="M2297.1 813.31C2307.85 815.053 2318.34 816.888 2328.73 820.262C2329.04 820.363 2329.18 819.872 2328.87 819.772C2318.67 816.493 2307.84 813.79 2297.11 813.203C2297.05 813.199 2297.04 813.3 2297.1 813.31Z" fill="#165D5C"/>
<path d="M2285.3 838.99C2284.96 844.38 2284.58 849.691 2283.51 855.001C2283.03 857.415 2282.44 859.808 2281.75 862.173C2281.41 863.355 2281.04 864.53 2280.65 865.697C2280.36 866.535 2279.81 869.405 2279.2 869.892C2279.39 869.74 2279.14 869.416 2278.94 869.555C2278.9 869.588 2278.85 869.621 2278.8 869.654C2278.71 869.72 2278.65 869.85 2278.72 869.957C2278.76 870.021 2278.8 870.086 2278.85 870.15C2278.91 870.248 2279.04 870.293 2279.15 870.229C2280.38 869.467 2280.74 866.636 2281.15 865.359C2282.1 862.432 2282.9 859.453 2283.54 856.442C2284.74 850.759 2285.53 844.809 2285.34 838.991C2285.34 838.965 2285.3 838.965 2285.3 838.99Z" fill="#165D5C"/>
<path d="M2320.52 824.039C2320.93 831.097 2321.05 837.742 2319.96 844.765C2319.92 845.014 2320.3 845.125 2320.34 844.871C2321.58 838.154 2321.96 830.754 2320.59 824.029C2320.59 823.986 2320.52 823.995 2320.52 824.039Z" fill="#165D5C"/>
<path d="M2317.97 766.781C2289.84 785.202 2260.79 801.825 2230.06 815.539C2221.17 819.507 2212.18 823.286 2203.08 826.755C2202.78 826.869 2202.91 827.355 2203.21 827.237C2234.61 814.831 2264.96 800.077 2293.82 782.532C2302.03 777.542 2310.15 772.377 2318.03 766.875C2318.08 766.835 2318.03 766.741 2317.97 766.781Z" fill="#165D5C"/>
<path d="M2220.57 800.873C2228.98 802.091 2237.57 804.189 2244.79 808.883C2245.12 809.101 2245.45 808.529 2245.1 808.35C2237.33 804.439 2229.41 801.221 2220.59 800.75C2220.52 800.747 2220.5 800.863 2220.57 800.873Z" fill="#165D5C"/>
<path d="M2256.28 803.506C2254.45 811.377 2252.55 819.043 2249.59 826.589C2249.49 826.865 2249.93 826.986 2250.04 826.712C2252.92 819.314 2255.38 811.421 2256.33 803.514C2256.33 803.483 2256.28 803.477 2256.28 803.506Z" fill="#165D5C"/>
<path d="M2261.96 776.325C2262.21 777.326 2262.91 777.588 2263.86 777.835C2266.49 778.512 2269.29 778.744 2271.95 779.344C2277.55 780.608 2283.01 782.405 2288.29 784.653C2288.63 784.798 2288.84 784.327 2288.49 784.182C2284.33 782.425 2280.07 780.937 2275.7 779.779C2273.59 779.221 2271.47 778.732 2269.32 778.333C2267.7 778.03 2262.84 778.025 2262.06 776.284C2262.03 776.225 2261.94 776.267 2261.96 776.325Z" fill="#165D5C"/>
<path d="M2296.8 779.983C2297.11 784.611 2297.33 788.732 2296.1 793.295C2296.01 793.596 2296.48 793.725 2296.56 793.424C2297.69 789.152 2298.24 784.257 2296.93 779.965C2296.91 779.896 2296.79 779.905 2296.8 779.983Z" fill="#165D5C"/>
<path d="M2300.22 740.903C2285.79 746.228 2271.16 750.541 2256.11 753.777C2240.89 757.051 2225.51 759.497 2210.15 762.008C2201.48 763.425 2192.8 764.822 2184.18 766.501C2183.82 766.57 2183.97 767.107 2184.33 767.043C2214.88 761.506 2245.95 757.859 2275.91 749.456C2284.18 747.137 2292.41 744.494 2300.31 741.103C2300.42 741.055 2300.34 740.861 2300.22 740.903Z" fill="#165D5C"/>
<path d="M2205.97 749.248C2208.7 750.964 2211.65 752.381 2214.45 753.99C2215.79 754.759 2217.12 755.541 2218.44 756.336C2219.78 757.14 2222.58 758.335 2223.12 759.856C2223.23 760.164 2223.72 760.038 2223.62 759.719C2223.24 758.557 2222.5 758.217 2221.47 757.579C2219.76 756.526 2218.02 755.528 2216.27 754.537C2212.94 752.643 2209.56 750.61 2206 749.154C2205.95 749.133 2205.92 749.219 2205.97 749.248Z" fill="#165D5C"/>
<path d="M2233.57 758.366C2228.58 767.112 2222.26 774.819 2216.17 782.798C2216.03 782.99 2216.36 783.246 2216.51 783.058C2222.89 775.386 2229.03 767.28 2233.69 758.433C2233.73 758.357 2233.61 758.291 2233.57 758.366Z" fill="#165D5C"/>
<path d="M2252.72 740.142C2254.45 742.356 2256.58 744.305 2258.58 746.272C2260.58 748.24 2262.56 750.322 2264.76 752.066C2264.93 752.203 2265.17 751.985 2265.01 751.817C2263.06 749.784 2260.87 747.958 2258.84 746.005C2256.82 744.054 2254.91 741.918 2252.76 740.104C2252.73 740.08 2252.7 740.114 2252.72 740.142Z" fill="#165D5C"/>
<path d="M2275.87 748.982C2274.44 754.715 2272.4 759.86 2269.09 764.779C2268.93 765.015 2269.31 765.225 2269.47 765C2272.83 760.343 2275.29 754.719 2276.05 749.006C2276.06 748.905 2275.89 748.885 2275.87 748.982Z" fill="#165D5C"/>
<path d="M2281.07 717.31C2270.92 719.251 2260.84 721.563 2250.66 723.357C2240.19 725.202 2229.67 726.747 2219.11 728.004C2208.85 729.226 2198.56 730.167 2188.25 730.826C2177.73 731.498 2166.88 732.486 2156.4 730.888C2156.05 730.833 2155.89 731.383 2156.25 731.438C2164.13 732.638 2172.1 732.247 2180.03 731.855C2188.41 731.44 2196.79 730.838 2205.15 730.051C2221.24 728.534 2237.27 726.319 2253.18 723.422C2262.52 721.72 2271.94 719.96 2281.1 717.43C2281.18 717.408 2281.15 717.295 2281.07 717.31Z" fill="#165D5C"/>
<path d="M2175.74 715.328C2176.85 717.773 2179.87 719.712 2181.71 721.659C2184.15 724.254 2186.38 727.03 2188.43 729.945C2188.59 730.178 2188.98 729.954 2188.81 729.72C2187.05 727.256 2185.18 724.889 2183.14 722.65C2182.08 721.485 2180.99 720.356 2179.85 719.267C2178.54 718.012 2176.78 716.849 2175.86 715.261C2175.82 715.185 2175.71 715.252 2175.74 715.328Z" fill="#165D5C"/>
<path d="M2199.41 730.34C2197.98 733.158 2196.75 736.043 2195.12 738.763C2193.34 741.722 2191.25 744.39 2189.11 747.09C2188.95 747.282 2189.21 747.555 2189.38 747.366C2193.7 742.686 2197.65 736.497 2199.46 730.361C2199.47 730.332 2199.43 730.312 2199.41 730.34Z" fill="#165D5C"/>
<path d="M2214.53 709.932C2216.79 712.874 2219.7 715.315 2222.4 717.841C2225.51 720.742 2228.29 723.748 2230.7 727.263C2230.84 727.476 2231.18 727.287 2231.05 727.058C2227.15 720.303 2220.13 715.257 2214.65 709.837C2214.59 709.777 2214.47 709.859 2214.53 709.932Z" fill="#165D5C"/>
<path d="M2246.51 725.109C2244.04 729.336 2241.26 733.111 2238.33 737.015C2238.2 737.181 2238.47 737.373 2238.61 737.233C2241.96 733.911 2244.75 729.491 2246.69 725.215C2246.74 725.094 2246.58 724.989 2246.51 725.109Z" fill="#165D5C"/>
</svg>
