<svg width="360" height="1612" viewBox="0 0 360 1612" fill="none" xmlns="http://www.w3.org/2000/svg">
<path d="M147.764 664.808C159.69 664.814 170.713 655.622 173.784 644.246C116.309 665.48 56.683 650.576 0 632.404V663.617C24.412 675.709 165.626 709.591 173.946 683.65C174.697 681.309 175.263 678.761 174.522 676.417C171.435 666.644 153.665 673.189 147.764 664.808Z" fill="#1E7467"/>
<path d="M173.784 644.246C174.32 642.261 174.619 640.211 174.633 638.131C174.655 634.778 173.925 631.192 171.52 628.855C169.189 626.589 165.786 625.936 162.622 625.192C143.762 620.757 11.353 554.059 0 538.359V632.405C56.683 650.576 116.309 665.48 173.784 644.246Z" fill="#229181"/>
<path d="M0 1606.03L72.767 1611.6L55.733 0H0V1606.03Z" fill="#A15440"/>
<path d="M33.9141 728.637L96.3211 692.84L129.836 643.146L115.968 685.891L201.489 643.146V668.571L33.9141 772.583V728.637Z" fill="#A15440"/>
<path d="M298.582 228.778C293.808 223.453 286.86 220.727 280.195 218.133C201.611 187.536 57.836 138.15 0 76.777V258.954C29.402 282.057 66.843 298.375 103 295.965C109 295.965 110 286.965 113 280.965C115 276.965 121 275.965 126 274.965C161 272.965 195 269.965 230 261.965C251.155 257.157 276.005 259.754 292.109 275.965C293.332 274.536 294.52 273.074 295.632 271.541C304.716 259.02 308.907 240.297 298.582 228.778Z" fill="#229181"/>
<path d="M230 261.964C195 269.964 161 272.964 126 274.964C121 275.964 115 276.964 113 280.964C110 286.964 109 295.964 103 295.964C66.843 298.374 29.402 282.056 0 258.953V324.469C48.297 345.754 147.409 375.374 197.413 358.485C204.315 356.154 212.34 350.137 209.614 343.381C208.634 340.952 206.434 339.269 204.331 337.708C190.361 327.337 176.39 316.965 162.42 306.594C186.402 308.539 210.698 310.471 234.391 306.28C256.219 302.419 277.795 292.696 292.108 275.964C276.005 259.753 251.155 257.156 230 261.964Z" fill="#1E7467"/>
<path d="M154 34.964C144 35.964 133 31.964 125 35.964C112 41.964 103 53.964 87 55.964C56.714 58.235 28.148 53.624 0 45.175V76.776C56.986 98.061 174.099 126.751 233.1 109.862C241.243 107.531 250.712 101.514 247.496 94.758C246.339 92.329 243.744 90.646 241.263 89.085C224.78 78.714 208.296 68.343 191.813 57.971C220.109 59.916 248.776 61.848 276.731 57.657C298.915 54.331 320.888 46.665 337.349 33.912C282.155 -0.340988 214.296 29.129 154 34.964Z" fill="#1E7467"/>
<path d="M0 0V45.176C28.148 53.625 56.714 58.236 87 55.965C103 53.965 112 41.965 125 35.965C133 31.965 144 35.965 154 34.965C214.296 29.13 282.155 -0.34 337.348 33.914C341.631 30.596 345.546 26.939 348.988 22.919C354.62 16.34 358.62 8.055 359.406 0H0Z" fill="#229181"/>
<path d="M198 495.964C165 477.964 116 482.964 102 519.964C61 530.964 35 493.964 9 468.964C6.439 466.037 3.472 463.787 0.157 462.248L0 505.192C21.144 538.359 119.857 564.6 131.649 564.366C143.441 564.133 155.677 560.202 163.437 551.32C164.566 550.028 165.643 548.475 165.514 546.764C165.357 544.685 163.515 543.194 161.829 541.967C151.545 534.488 141.262 527.009 130.978 519.53C145.099 517.908 159.412 519.248 173.572 518.023C187.732 516.798 202.459 512.513 211.971 501.951C213.843 499.872 215.421 497.499 216.677 494.958C211.401 498.692 204.574 499.504 198 495.964Z" fill="#1E7467"/>
<path d="M213.336 463.395C204.509 454.782 190.538 455.553 178.719 452.03C102.535 429.321 10.4052 355.018 0.587227 345.086L0.157227 462.248C3.47223 463.787 6.43923 466.037 9.00023 468.964C35.0002 493.964 61.0002 530.964 102 519.964C116 482.964 165 477.964 198 495.964C204.574 499.504 211.401 498.691 216.677 494.959C221.802 484.59 221.506 471.367 213.336 463.395Z" fill="#229181"/>
</svg>
