<svg width="2849" height="775" viewBox="0 0 2849 775" fill="none" xmlns="http://www.w3.org/2000/svg">
<path d="M1517.15 774.877L2054.61 140.456L2768.73 774.877H1517.15Z" fill="#1C3457"/>
<path d="M2054.61 140.456L2198.96 710.529L2468.08 508.342L2054.61 140.456Z" fill="#172B47"/>
<path d="M1713.35 709.383L1928.6 345.668L1971.98 352.665L2001.02 253.105L2021.13 263.193L2054.61 140.456L1717.06 538.906L1713.35 709.383Z" fill="#264675"/>
<path d="M2054.61 140.456L2094.66 299.773L2112.76 241.402L2163.38 237.083L2054.61 140.456Z" fill="#506C96"/>
<path d="M1956.42 256.36L2022.24 231.308L2094.66 299.773L2054.61 140.456L1956.42 256.36Z" fill="#D3E1E9"/>
<path d="M816.922 448.191L1250.55 83.2689L1593.12 338.715L1672.45 241.402L2103.37 697.555V774.877H816.922V448.191Z" fill="#264675"/>
<path d="M1895.19 635.742L1856.12 774.877H1324.42L1250.55 83.2689L1517.01 355.896L1526.45 420.562L1627.11 364.191L1895.19 635.742Z" fill="#1F395E"/>
<path d="M1526.45 420.562L1672.45 241.402L1627.11 364.191L1526.45 420.562Z" fill="#325B99"/>
<path d="M1757.08 330.982L1699.05 306.867L1633.95 345.668L1672.45 241.402L1757.08 330.982Z" fill="#788DAB"/>
<path d="M1608.6 319.751L1627.1 310.843L1633.95 345.668L1672.45 241.402L1608.6 319.751Z" fill="#D3E1E9"/>
<path d="M816.922 448.191L871.756 457.667L1025.65 324.004L1043.41 351.274L1133.04 258.595L1178.71 253.105L1250.55 83.2689L816.922 448.191Z" fill="#325B99"/>
<path d="M1093.48 215.452L1202.38 193.399L1215.07 287.66L1272.69 291.318L1250.55 83.2689L1093.48 215.452Z" fill="#D3E1E9"/>
<path d="M1250.55 83.2689L1272.69 291.318L1332.6 364.191L1346.98 269.576L1409.55 276.642L1438.57 245.547L1482.69 256.372L1250.55 83.2689Z" fill="#788DAB"/>
<path d="M1826.25 610.745L1990.86 432.691L2117.95 521.718L2599.67 0.361938L2749.75 226.959L2849 124.888V774.877H1612.27L1826.25 610.745Z" fill="#325C99"/>
<path d="M1990.86 432.691L2103.37 774.877H2482.65L1990.86 432.691Z" fill="#264675"/>
<path d="M1612.27 774.877L1871.6 618.81L1866.1 593.142L1947.1 561.486L1990.86 432.691L1826.25 610.745L1612.27 774.877Z" fill="#497ABF"/>
<path d="M2599.67 0.361938L2675.02 774.877H2849V377.576L2599.67 0.361938Z" fill="#264675"/>
<path d="M2117.95 521.718L2186.63 568.911L2421.04 364.191L2340.73 345.668L2454.91 269.36L2599.67 0.361938L2117.95 521.718Z" fill="#497ABF"/>
<path d="M2599.67 0.361938L2340.73 280.6L2504.72 220.115L2632.35 345.668L2599.67 0.361938Z" fill="white"/>
<path d="M2599.67 0.361938L2812.89 323.546L2716.39 241.402L2632.35 345.668L2599.67 0.361938Z" fill="#D3E1E9"/>
<path d="M1990.86 432.691L1895.19 536.181L1956.42 526.406L2033.48 565.69L1990.86 432.691Z" fill="white"/>
<path d="M1990.86 432.691L2079.8 494.995L2046.93 499.19L2033.48 565.69L1990.86 432.691Z" fill="#D3E1E9"/>
<path d="M46.0649 534.886L365.198 201.869L628.439 451.232L787.104 417.781L1123.63 774.877H464.715L46.0649 534.886Z" fill="#264675"/>
<path d="M365.198 201.869L271.787 299.345L332.237 277.732L374.896 312.426L365.198 201.869Z" fill="#D3E1E9"/>
<path d="M365.198 201.869L374.896 312.426L399.461 270.468H437.615L365.198 201.869Z" fill="#506C96"/>
<path d="M312.98 534.886L632.113 201.869L895.354 451.232L1054.02 417.781L1390.54 774.877H731.63L312.98 534.886Z" fill="#325C99"/>
<path d="M632.113 201.869L693.572 457.667L762.893 500.871L741.587 552.763L857.92 774.877L895.354 451.232L632.113 201.869Z" fill="#2C5187"/>
<path d="M632.113 201.869L529.897 308.532L590.354 287.66L672.951 371.774L632.113 201.869Z" fill="white"/>
<path d="M762.893 325.754L696.217 303.429L672.951 371.774L632.113 201.869L762.893 325.754Z" fill="#D3E1E9"/>
<path d="M1054.02 417.781L943.576 774.877H1390.54L1054.02 417.781Z" fill="#2C5187"/>
<path d="M895.354 451.232L1054.02 417.781L1014.47 544.002L984.743 474.333L895.354 451.232Z" fill="white"/>
<path d="M1054.02 417.781L1130.74 499.19L1063.64 488.373L1014.47 544.002L1054.02 417.781Z" fill="#D3E1E9"/>
<path d="M0.0268555 423.306L147.904 287.66L306.159 458.311L394.366 401.427L731.63 774.877H0.0268555V423.306Z" fill="#5C93E0"/>
<path d="M394.366 401.427L427.492 609.357L471.085 650.122L446.389 668.651L529.897 774.877H731.63L394.366 401.427Z" fill="#5384C9"/>
<path d="M147.904 287.66L387.172 544.002L312.98 565.69L437.615 774.877H39.4326L147.904 287.66Z" fill="#5384C9"/>
<path d="M147.904 287.66L46.0649 381.076H96.9839L109.992 457.667L147.904 287.66Z" fill="white"/>
<path d="M147.904 287.66L225.908 371.774L163.813 372.663L109.992 457.667L147.904 287.66Z" fill="#D3E1E9"/>
<path d="M394.366 401.427L306.159 458.311L335.248 488.373L368.884 475.828L410.655 506.35L394.366 401.427Z" fill="white"/>
<path d="M394.366 401.427L460.618 474.787L427.492 464.297L410.655 506.35L394.366 401.427Z" fill="#D3E1E9"/>
</svg>
