<svg width="360" height="1612" viewBox="0 0 360 1612" fill="none" xmlns="http://www.w3.org/2000/svg">
<path d="M187.137 630.572C185.802 632.767 185.349 635.515 185.366 638.13C185.459 652.137 198.229 664.815 212.236 664.808C206.335 673.188 188.565 666.643 185.477 676.417C184.736 678.762 185.302 681.309 186.053 683.65C194.373 709.591 335.587 675.709 359.999 663.617V608.581C317.721 615.257 276.702 633.967 233.999 636.964C221.176 637.677 198.205 639.401 187.137 630.572Z" fill="#1E7467"/>
<path d="M197.377 625.191C194.212 625.935 190.81 626.588 188.479 628.854C187.949 629.369 187.514 629.952 187.137 630.572C198.205 639.401 221.176 637.677 234 636.964C276.703 633.967 317.722 615.257 360 608.581V538.358C348.647 554.059 216.238 620.757 197.377 625.191Z" fill="#229181"/>
<path d="M360 1606.03L287.233 1611.6L304.267 0H360V1606.03Z" fill="#A15440"/>
<path d="M243.491 762.007V803.215L301.639 839.307V795.36L243.491 762.007Z" fill="#A15440"/>
<path d="M66.9999 260.964C121 267.964 173 287.964 228 272.964C236 269.964 247 269.964 252 277.964C257 286.964 252 295.964 248 303.964C246 311.964 252 318.964 259 317.964C296.591 313.787 328.841 295.369 360 274.606V76.777C302.164 138.15 158.389 187.536 79.8048 218.133C73.1398 220.728 66.1919 223.453 61.4179 228.778C53.3289 237.802 54.1508 251.249 59.2538 262.67C61.6598 261.267 64.3289 260.519 66.9999 260.964Z" fill="#229181"/>
<path d="M259 317.964C252 318.964 246 311.964 248 303.964C252 295.964 257 286.964 252 277.964C247 269.964 236 269.964 228 272.964C173 287.964 121 267.964 67 260.964C64.329 260.519 61.6599 261.267 59.2539 262.67C60.6639 265.827 62.4009 268.829 64.3679 271.541C78.4979 291.016 101.915 302.09 125.608 306.281C149.301 310.472 173.597 308.54 197.579 306.595C183.609 316.966 169.638 327.338 155.668 337.709C153.565 339.27 151.365 340.954 150.386 343.382C147.66 350.137 155.686 356.155 162.587 358.486C212.591 375.375 311.703 345.754 360.001 324.47V274.607C328.841 295.369 296.591 313.788 259 317.964Z" fill="#1E7467"/>
<path d="M191 21.964C199 21.964 209 25.964 212 34.964C217 52.964 196 72.964 213 86.964C218 91.964 227 88.964 234 86.964C278.939 76.353 320.371 60.288 360 40.472V0H0.593994C1.37899 8.055 5.37996 16.34 11.012 22.918C11.141 23.069 11.276 23.214 11.407 23.364C13.524 24.491 15.72 25.394 18 25.964C78 38.964 133 19.964 191 21.964Z" fill="#229181"/>
<path d="M234 86.964C227 88.964 218 91.964 213 86.964C196 72.964 217 52.964 212 34.964C209 25.964 199 21.964 191 21.964C133 19.964 78 38.964 18 25.964C15.72 25.394 13.524 24.491 11.407 23.364C28.117 42.559 55.531 53.5 83.27 57.658C111.225 61.849 139.892 59.917 168.188 57.972C151.705 68.343 135.221 78.714 118.738 89.086C116.257 90.647 113.661 92.331 112.505 94.759C109.29 101.515 118.758 107.532 126.901 109.863C185.901 126.752 303.015 98.061 360.001 76.777V40.472C320.371 60.289 278.939 76.354 234 86.964Z" fill="#1E7467"/>
<path d="M244 494.964C262 494.964 251 517.964 256 525.964C269 543.964 297 520.964 315 509.964C332.606 499.204 346.861 485.811 359.876 471.31L359.413 345.086C349.595 355.018 257.465 429.321 181.281 452.029C169.462 455.552 155.491 454.781 146.664 463.394C139.974 469.922 138.561 479.97 141.082 489.09C164.553 515.736 213.002 494.964 244 494.964Z" fill="#229181"/>
<path d="M315 509.964C297 520.964 269 543.964 256 525.964C251 517.964 262 494.964 244 494.964C213.002 494.964 164.553 515.735 141.082 489.091C142.394 493.839 144.772 498.336 148.029 501.952C157.541 512.514 172.268 516.799 186.428 518.024C200.588 519.249 214.902 517.909 229.022 519.531C218.738 527.01 208.455 534.489 198.171 541.968C196.485 543.194 194.644 544.686 194.486 546.765C194.357 548.475 195.434 550.029 196.563 551.321C204.323 560.203 216.559 564.134 228.351 564.367C240.143 564.6 338.856 538.36 360 505.193L359.876 471.311C346.861 485.811 332.606 499.205 315 509.964Z" fill="#1E7467"/>
</svg>
