<svg width="2344" height="427" viewBox="0 0 2344 427" fill="none" xmlns="http://www.w3.org/2000/svg">
<path d="M2341.98 427V152.763C2098.65 37.6579 1813.49 16.4209 1537.99 6.87194C1273.08 -2.31006 1006.11 -2.99607 744.977 38.2629C483.848 79.5219 227.135 164.769 19.0743 313.041L1.57129 427H2341.98Z" fill="#45ADA4"/>
<path d="M2343.48 427C2343.48 347.064 2343.48 267.128 2343.48 187.193C2343.48 175.717 2343.48 164.24 2343.48 152.764C2343.48 152.272 2343.2 151.688 2342.73 151.469C2187.56 78.4309 2017.9 43.5849 1848.24 25.2679C1666.65 5.66089 1482.68 1.07798 1300.14 0.310983C1110.36 -0.487017 919.934 8.14097 732.404 38.775C563.755 66.324 397.101 112.034 241.567 183.5C165.285 218.551 91.8042 259.895 23.1772 308.304C17.2222 312.505 17.6062 312.778 16.5812 319.45C15.1662 328.662 13.7512 337.874 12.3362 347.086C8.92623 369.287 5.51622 391.487 2.10722 413.688C1.44622 417.993 0.785223 422.297 0.124223 426.602C-0.0207768 427.547 0.506238 428.501 1.57024 428.501C22.5792 428.501 43.5872 428.501 64.5962 428.501C121.257 428.501 177.918 428.501 234.579 428.501C318.584 428.501 402.589 428.501 486.594 428.501C589.084 428.501 691.573 428.501 794.063 428.501C905.926 428.501 1017.79 428.501 1129.65 428.501C1243.34 428.501 1357.02 428.501 1470.71 428.501C1575.99 428.501 1681.26 428.501 1786.54 428.501C1875.83 428.501 1965.11 428.501 2054.39 428.501C2118.59 428.501 2182.78 428.501 2246.97 428.501C2277.28 428.501 2307.69 429.172 2337.99 428.501C2339.32 428.472 2340.65 428.501 2341.97 428.501C2343.9 428.501 2343.91 425.501 2341.97 425.501C2329.36 425.501 2316.74 425.501 2304.13 425.501C2269.15 425.501 2234.17 425.501 2199.2 425.501C2145.81 425.501 2092.42 425.501 2039.03 425.501C1970.84 425.501 1902.66 425.501 1834.48 425.501C1756.07 425.501 1677.67 425.501 1599.26 425.501C1514.31 425.501 1429.35 425.501 1344.4 425.501C1256.46 425.501 1168.52 425.501 1080.58 425.501C994.392 425.501 908.207 425.501 822.022 425.501C741.155 425.501 660.289 425.501 579.422 425.501C507.532 425.501 435.642 425.501 363.752 425.501C305.439 425.501 247.125 425.501 188.812 425.501C147.683 425.501 106.554 425.501 65.4242 425.501C45.8382 425.501 24.8302 423.33 5.33122 425.501C4.27422 425.619 2.78623 425.682 1.72023 425.501C4.12223 425.91 2.38924 428.066 3.58324 423.692C5.36424 417.17 5.70922 409.848 6.73522 403.172C9.88622 382.657 13.0372 362.142 16.1882 341.627C17.3672 333.953 18.5452 326.279 19.7242 318.606C21.0902 309.713 30.4752 306.799 37.7342 301.817C163.434 215.534 304.099 152.661 449.448 107.643C604.254 59.6969 764.669 32.0869 925.894 17.5539C1096.67 2.1599 1268.4 1.17992 1439.71 5.42292C1600.92 9.41592 1762.83 15.1409 1922.71 37.4449C2000.02 48.2299 2076.86 63.0849 2152.04 84.1999C2188.82 94.5289 2225.18 106.36 2260.9 119.932C2279.84 127.13 2298.59 134.816 2317.12 143.027C2323.22 145.733 2338.48 149.404 2340.47 154.844C2341.49 157.613 2340.47 162.653 2340.47 165.592C2340.47 171.738 2340.47 177.884 2340.47 184.03C2340.47 201.804 2340.47 219.578 2340.47 237.352C2340.47 279.701 2340.47 322.049 2340.47 364.398C2340.47 385.267 2340.47 406.135 2340.47 427.003C2340.48 428.93 2343.48 428.934 2343.48 427Z" fill="#45ADA4"/>
</svg>
