<svg width="879" height="880" viewBox="0 0 879 880" fill="none" xmlns="http://www.w3.org/2000/svg">
<path opacity="0.05" d="M439.348 879.065C681.829 879.065 878.399 682.495 878.399 440.014C878.399 197.533 681.829 0.963013 439.348 0.963013C196.867 0.963013 0.296875 197.533 0.296875 440.014C0.296875 682.495 196.867 879.065 439.348 879.065Z" fill="white"/>
<path opacity="0.05" d="M439.348 816.912C647.503 816.912 816.246 648.169 816.246 440.014C816.246 231.859 647.503 63.116 439.348 63.116C231.193 63.116 62.4497 231.859 62.4497 440.014C62.4497 648.169 231.193 816.912 439.348 816.912Z" fill="white"/>
<path opacity="0.05" d="M439.348 751.493C611.373 751.493 750.827 612.039 750.827 440.014C750.827 267.989 611.373 128.535 439.348 128.535C267.323 128.535 127.869 267.989 127.869 440.014C127.869 612.039 267.323 751.493 439.348 751.493Z" fill="white"/>
<path d="M439.348 711.998C589.56 711.998 711.332 590.227 711.332 440.014C711.332 289.801 589.56 168.03 439.348 168.03C289.135 168.03 167.364 289.801 167.364 440.014C167.364 590.227 289.135 711.998 439.348 711.998Z" fill="white"/>
</svg>
